<svg xmlns="http://www.w3.org/2000/svg" viewBox="0 0 2505.9 8153.2">
  <defs/>
  <path fill="#17a4ea" d="M2325 2688a181 181 0 11-181 181 181 181 0 01181-181z" data-name="Path 201" opacity=".2"/>
  <circle cx="54.3" cy="54.3" r="54.3" fill="#ffcc69" data-name="Ellipse 78" opacity=".3" transform="translate(1936.4 895.7)"/>
  <circle cx="54.3" cy="54.3" r="54.3" fill="#ffcc69" data-name="Ellipse 84" opacity=".4" transform="translate(338.5 6102)"/>
  <circle cx="152.8" cy="152.8" r="152.8" fill="#ffcc69" data-name="Ellipse 86" transform="translate(389 4257.7)"/>
  <circle cx="152.8" cy="152.8" r="152.8" fill="#ffcc69" data-name="Ellipse 90" transform="translate(121 3305.7)"/>
  <circle cx="25.9" cy="25.9" r="25.9" fill="#17a4ea" data-name="Ellipse 53" opacity=".2" transform="translate(2176.2 266.2)"/>
  <circle cx="20.9" cy="20.9" r="20.9" fill="#17a4ea" data-name="Ellipse 54" opacity=".4" transform="translate(911 696.2)"/>
  <circle cx="25.9" cy="25.9" r="25.9" fill="#17a4ea" data-name="Ellipse 55" opacity=".4" transform="translate(1916.2)"/>
  <circle cx="69.4" cy="69.4" r="69.4" fill="#17a4ea" data-name="Ellipse 56" opacity=".2" transform="translate(1589.8 197)"/>
  <path fill="#17a4ea" d="M749 376a181 181 0 11-181 181 181 181 0 01181-181z" data-name="Path 97" opacity=".2"/>
  <path fill="#17a4ea" d="M695.5 904.8a34.5 34.5 0 11-34.5 34.5 34.5 34.5 0 0134.5-34.5z" data-name="Path 108" opacity=".2"/>
  <circle cx="60.9" cy="60.9" r="60.9" fill="#17a4ea" data-name="Ellipse 59" opacity=".4" transform="translate(1570.2 616.2)"/>
  <ellipse cx="17.9" cy="15.4" fill="#17a4ea" data-name="Ellipse 63" opacity=".4" rx="17.9" ry="15.4" transform="translate(1711 26)"/>
  <circle cx="69.4" cy="69.4" r="69.4" fill="#17a4ea" data-name="Ellipse 71" opacity=".2" transform="translate(1996.8 835)"/>
  <circle cx="69.4" cy="69.4" r="69.4" fill="#17a4ea" data-name="Ellipse 79" opacity=".3" transform="translate(1891 794)"/>
  <ellipse cx="32.4" cy="33.4" fill="#17a4ea" data-name="Ellipse 74" opacity=".2" rx="32.4" ry="33.4" transform="translate(1620.8 900)"/>
  <circle cx="7.9" cy="7.9" r="7.9" fill="#17a4ea" data-name="Ellipse 72" opacity=".4" transform="translate(1895.3 558.3)"/>
  <circle cx="21.4" cy="21.4" r="21.4" fill="#17a4ea" data-name="Ellipse 73" opacity=".4" transform="translate(1859.3 391.3)"/>
  <path fill="#17a4ea" d="M429 1744a181 181 0 11-181 181 181 181 0 01181-181z" data-name="Path 113" opacity=".2"/>
  <path fill="#17a4ea" d="M590.5 1937.8A109.5 109.5 0 11481 2047.3a109.5 109.5 0 01109.5-109.5z" data-name="Path 114" opacity=".2"/>
  <path fill="#17a4ea" d="M2253.6 2532.8a109.5 109.5 0 11-109.5 109.5 109.5 109.5 0 01109.5-109.5z" data-name="Path 202" opacity=".2"/>
  <path fill="#17a4ea" d="M428.8 6880.2a109.5 109.5 0 11-109.5 109.5 109.5 109.5 0 01109.5-109.5z" data-name="Path 117" opacity=".2"/>
  <path fill="rgba(255,204,105,0.28)" d="M639.8 1537.2A29.8 29.8 0 11610 1567a29.8 29.8 0 0129.8-29.8z" data-name="Path 115" opacity=".9"/>
  <path fill="#17a4ea" d="M1350.5 7916.2a109.5 109.5 0 11-109.5 109.5 109.5 109.5 0 01109.5-109.5z" data-name="Path 123" opacity=".2"/>
  <path fill="#17a4ea" d="M2210.6 6492.2a109.5 109.5 0 11-109.5 109.5 109.5 109.5 0 01109.5-109.5z" data-name="Path 141" opacity=".2"/>
  <path fill="#17a4ea" d="M2282.5 7538.2a109.5 109.5 0 11-109.5 109.5 109.5 109.5 0 01109.5-109.5z" data-name="Path 117" opacity=".3"/>
  <path fill="#17a4ea" d="M1923.3 5975.5c50.6 0 91.6 41.3 91.6 92.3s-41 92.4-91.6 92.4-91.7-41.4-91.7-92.4 41-92.3 91.7-92.3z" data-name="Path 153" opacity=".2"/>
  <path fill="#17a4ea" d="M434.5 6018.2c36.2 0 65.4 30 65.4 67s-29.2 67-65.4 67-65.4-30-65.4-67 29.3-67 65.4-67z" data-name="Path 154" opacity=".2"/>
  <path fill="#17a4ea" d="M532.1 5399.2c36.2 0 65.4 30 65.4 67s-29.2 67-65.4 67-65.4-30-65.4-67 29.3-67 65.4-67z" data-name="Path 159" opacity=".2"/>
  <path fill="#17a4ea" d="M460 5448.2c36 0 65.4 30 65.4 67s-29.3 67-65.4 67-65.4-30-65.4-67 29.2-67 65.4-67z" data-name="Path 160" opacity=".2"/>
  <path fill="#17a4ea" d="M521.2 7880.5a52.7 52.7 0 11-52.7 52.7 52.7 52.7 0 0152.7-52.7z" data-name="Path 190" opacity=".2"/>
  <path fill="#17a4ea" d="M1056.3 7552.2c18 0 32.8 15.8 32.8 35.3s-14.7 35.3-32.8 35.3-32.8-15.8-32.8-35.3 14.7-35.3 32.8-35.3z" data-name="Path 191" opacity=".2"/>
  <path fill="#17a4ea" d="M1133.8 7555.6c34.4 0 62.2 30 62.2 67.1s-27.8 67.1-62.2 67.1-62.3-30-62.3-67 27.9-67.2 62.3-67.2z" data-name="Path 192" opacity=".4"/>
  <path fill="#17a4ea" d="M404 7545.5a102 102 0 11-102 102 102 102 0 01102-102z" data-name="Path 193" opacity=".4"/>
  <path fill="#17a4ea" d="M1894.1 7208.6a126.6 126.6 0 11-126.6 126.6 126.6 126.6 0 01126.6-126.6z" data-name="Path 194" opacity=".2"/>
  <path fill="#17a4ea" d="M1845.4 6909a48.9 48.9 0 11-48.9 49 48.9 48.9 0 0149-49z" data-name="Path 195" opacity=".2"/>
  <path fill="#ffcc69" d="M847.5 7147.2a26.5 26.5 0 11-26.5 26.5 26.5 26.5 0 0126.5-26.5z" data-name="Path 196"/>
  <path fill="#ffcc69" d="M2167 7484.2a82 82 0 11-82 82 82 82 0 0182-82z" data-name="Path 220" opacity=".4"/>
  <path fill="#ffcc69" d="M1171 7989.2a82 82 0 11-82 82 82 82 0 0182-82z" data-name="Path 221" opacity=".4"/>
  <path fill="#ffcc69" d="M397.5 7076.3a48.5 48.5 0 11-48.5 48.5 48.5 48.5 0 0148.5-48.5z" data-name="Path 222" opacity=".4"/>
  <path fill="#17a4ea" d="M1273.5 6981.2a26.5 26.5 0 11-26.5 26.5 26.5 26.5 0 0126.5-26.5z" data-name="Path 197" opacity=".2"/>
  <path fill="#17a4ea" d="M1505.2 6928.8a20.2 20.2 0 11-20.2 20.2 20.2 20.2 0 0120.2-20.2z" data-name="Path 198" opacity=".2"/>
  <path fill="#17a4ea" d="M1880.6 7820a25.4 25.4 0 11-25.3 25.4 25.4 25.4 0 0125.3-25.4z" data-name="Path 199" opacity=".2"/>
  <path fill="#17a4ea" d="M1906 7775.4a39.7 39.7 0 11-39.7 39.7 39.7 39.7 0 0139.7-39.7z" data-name="Path 200" opacity=".2"/>
  <circle cx="54.3" cy="54.3" r="54.3" fill="#ffcc69" data-name="Ellipse 89" opacity=".5" transform="translate(1992 5686.7)"/>
  <path fill="#17a4ea" d="M2168.5 5575.8a109.5 109.5 0 11-109.5 109.5 109.5 109.5 0 01109.5-109.5z" data-name="Path 203" opacity=".2"/>
  <path fill="#17a4ea" d="M2046 5561.8a69 69 0 11-69 69 69 69 0 0169-69z" data-name="Path 205" opacity=".2"/>
  <path fill="#17a4ea" d="M530 4027a181 181 0 11-181 181 181 181 0 01181-181z" data-name="Path 207" opacity=".2"/>
  <path fill="#17a4ea" d="M262 3075a181 181 0 11-181 181 181 181 0 01181-181z" data-name="Path 214" opacity=".2"/>
  <path fill="#17a4ea" d="M711.6 4191.8A109.5 109.5 0 11602 4301.3a109.5 109.5 0 01109.5-109.5z" data-name="Path 208" opacity=".2"/>
  <path fill="#17a4ea" d="M443.6 3239.8A109.5 109.5 0 11334 3349.3a109.5 109.5 0 01109.5-109.5z" data-name="Path 213" opacity=".2"/>
  <circle cx="54.3" cy="54.3" r="54.3" fill="#ffcc69" data-name="Ellipse 91" opacity=".5" transform="translate(2060.4 4415.4)"/>
  <path fill="#17a4ea" d="M1993.5 4578.8a109.5 109.5 0 11109.5-109.5 109.5 109.5 0 01-109.5 109.5z" data-name="Path 215" opacity=".2"/>
  <path fill="#17a4ea" d="M2116 4592.8a69 69 0 1169-69 69 69 0 01-69 69z" data-name="Path 216" opacity=".2"/>
  <ellipse cx="12.9" cy="10.9" fill="#17a4ea" data-name="Ellipse 60" opacity=".4" rx="12.9" ry="10.9" transform="translate(0 4069.2)"/>
</svg>