<svg xmlns="http://www.w3.org/2000/svg" width="53.989" height="54" viewBox="0 0 53.989 54"><defs><style>.a{fill:#f2f2f2;}</style></defs><path class="a" d="M36.635,24.548C35.056,14.826,31.333,8,27,8s-8.056,6.826-9.635,16.548ZM16.548,35a68.239,68.239,0,0,0,.359,6.968H37.081A68.24,68.24,0,0,0,37.441,35a68.24,68.24,0,0,0-.359-6.968H16.908A68.239,68.239,0,0,0,16.548,35ZM51.9,24.548A27.057,27.057,0,0,0,34.7,9.132c2.656,3.68,4.485,9.221,5.444,15.416ZM19.292,9.132A27.039,27.039,0,0,0,2.1,24.548H13.859c.947-6.195,2.776-11.736,5.433-15.416Zm33.772,18.9H40.576c.229,2.286.359,4.627.359,6.968s-.131,4.681-.359,6.968H53.053A26.767,26.767,0,0,0,53.989,35a27.235,27.235,0,0,0-.925-6.968ZM13.065,35c0-2.341.131-4.681.359-6.968H.936a26.395,26.395,0,0,0,0,13.935H13.413C13.2,39.681,13.065,37.341,13.065,35Zm4.3,10.452C18.944,55.174,22.667,62,27,62s8.056-6.826,9.635-16.548ZM34.708,60.868a27.083,27.083,0,0,0,17.2-15.416H40.152C39.194,51.646,37.365,57.188,34.708,60.868ZM2.1,45.452A27.057,27.057,0,0,0,19.3,60.868c-2.656-3.68-4.485-9.221-5.444-15.416H2.1Z" transform="translate(0 -8)"/></svg>