<svg xmlns="http://www.w3.org/2000/svg" width="60.337" height="53.632" viewBox="0 0 60.337 53.632"><defs><style>.a{fill:#f2f2f2;}</style></defs><path class="a" d="M30.17,12.042,7.279,32.233a4.847,4.847,0,0,1-.573.351V51.956a1.676,1.676,0,0,0,1.676,1.676H24.014l-3.9-7.627,10.906-6.7-6.3-12.488L40.226,41.141l-10.906,6.7L33.5,53.632H51.958a1.676,1.676,0,0,0,1.676-1.676V32.588a4.887,4.887,0,0,1-.551-.335ZM59.782,24.751l-6.148-5.429V5.028a1.676,1.676,0,0,0-1.676-1.676h-6.7a1.676,1.676,0,0,0-1.676,1.676v5.415L32.972,1.08a4.174,4.174,0,0,0-5.6,0L.558,24.751a1.677,1.677,0,0,0-.127,2.367l2.242,2.5a1.676,1.676,0,0,0,2.367.127L29.062,8.551a1.677,1.677,0,0,1,2.218,0L55.3,29.739a1.678,1.678,0,0,0,2.367-.127l2.242-2.5A1.675,1.675,0,0,0,59.782,24.751Z" transform="translate(-0.002)"/></svg>