<svg xmlns="http://www.w3.org/2000/svg" width="40.5" height="54" viewBox="0 0 40.5 54"><defs><style>.a{fill:#f2f2f2;}</style></defs><path class="a" d="M30.375,27H10.125v6.75h20.25Zm9.387-15.926L29.436.738A2.529,2.529,0,0,0,27.643,0H27V13.5H40.5v-.643A2.523,2.523,0,0,0,39.762,11.074Zm-16.137,3.27V0H2.531A2.525,2.525,0,0,0,0,2.531V51.469A2.525,2.525,0,0,0,2.531,54H37.969A2.525,2.525,0,0,0,40.5,51.469V16.875H26.156A2.539,2.539,0,0,1,23.625,14.344ZM6.75,7.594a.844.844,0,0,1,.844-.844h8.437a.844.844,0,0,1,.844.844V9.281a.844.844,0,0,1-.844.844H7.594a.844.844,0,0,1-.844-.844Zm0,6.75a.844.844,0,0,1,.844-.844h8.437a.844.844,0,0,1,.844.844v1.687a.844.844,0,0,1-.844.844H7.594a.844.844,0,0,1-.844-.844Zm27,32.062a.844.844,0,0,1-.844.844H24.469a.844.844,0,0,1-.844-.844V44.719a.844.844,0,0,1,.844-.844h8.437a.844.844,0,0,1,.844.844Zm0-21.094V35.438a1.687,1.687,0,0,1-1.687,1.687H8.437A1.687,1.687,0,0,1,6.75,35.438V25.312a1.687,1.687,0,0,1,1.687-1.687H32.062A1.687,1.687,0,0,1,33.75,25.312Z"/></svg>