<svg xmlns="http://www.w3.org/2000/svg" viewBox="99.674 238.7 639.726 117.8"><path fill="#191e3c" d="M236.2 238.7v67.9h14.2v-27.4h23.5v-12h-23.5v-15.6h30.5v-12.9zm88.1 67.9h-12.2l-.6-5.1c-2.5 3.4-6.8 6-13.6 6-11.1 0-16.9-8-16.9-20.6v-27.2h13.6v26.4c0 5.1 2.6 8.6 7.2 8.6 4.4 0 7.1-2.7 9-5.5v-29.5h13.6v46.9zm50.7-26.9v27h-13.6v-26.2c0-5.2-2.9-8.8-7.7-8.8-4.3 0-7.1 2.7-8.9 5.5v29.5h-13.6v-46.8h12.2l.6 5.2c2.3-3.4 6.8-6.1 13.3-6.1 11.5-.1 17.7 8 17.7 20.7m138.3-7.3h-1.1c-5.5 0-9.1 2.8-11.7 6.2v28.1h-13.6v-46.8H499l.8 6.2c2.3-3.8 6.9-7.1 13.5-7.1v13.4zm75.3-33.7l-33.8 46.6-33.9-46.6h-.4v67.9h14.1V278l19.8 29.5h.8l19.7-29.5v28.6H589v-67.9zm150.1 25.2l-5.1 9.6c-2.7-2.1-6.5-4-11.2-4-4 0-6.1 1.2-6.1 3.7 0 2.4 1.8 3.3 8.4 4.9 9.9 2.4 14.7 6.8 14.7 13.9 0 9.3-7.8 15.5-20.4 15.5-7.1 0-14-2.2-17.9-5.6l5.2-9.7c3.1 2.7 7.6 4.7 12.8 4.7 4.2 0 6.7-1.3 6.7-4 0-2.5-1.7-3.8-7.9-5.3-10.3-2.5-15.1-6.2-15.1-13.5 0-9.3 7.3-15.3 19.7-15.3 6.4.1 12.6 2 16.2 5.1m-343.5 19.4c0 7.7 4.3 12.5 10.5 12.5 4.7 0 7.6-2.5 9.6-5.8v-13.3c-2-3.3-4.9-5.9-9.6-5.9-6.2-.1-10.5 4.7-10.5 12.5m33.8 23.3h-12.2l-.7-5.2c-2.4 3.3-6.9 6.1-13.7 6.1-12.5 0-20.9-10.3-20.9-24.3s8.4-24.4 20.9-24.4c6.7 0 10.7 2.6 12.9 5.2v-25.3H429v67.9zm19.9-28.2h18.3c-.2-5.3-3.3-9.2-8.9-9.2-5.5-.1-9.1 3.8-9.4 9.2m31.7 4.2v4.3h-31.7c.3 6 4 9.4 10.7 9.4 4.6 0 8.2-2 10.3-4.8l9.3 7.6c-4.9 5.6-11.1 8.4-19.9 8.4-14.7 0-24.1-10.2-24.1-24.2s9.6-24.5 23.6-24.5c14.7.1 21.8 11 21.8 23.8m128.4.7c0 7.7 4.3 12.5 10.5 12.5 4.7 0 7.6-2.5 9.6-5.8v-13.3c-2-3.3-4.9-5.9-9.6-5.9-6.2-.1-10.5 4.7-10.5 12.5m20.8-18.2l.7-5.3h12.2v46.8h-12.2l-.7-5.2c-2.4 3.3-6.9 6.1-13.7 6.1-12.5 0-20.9-10.3-20.9-24.3s8.4-24.4 20.9-24.4c6.8.1 11.3 2.8 13.7 6.3m33.8 11.5v13.2c2 3.4 5 5.9 9.7 5.9 6.2 0 10.5-4.8 10.5-12.5 0-7.8-4.3-12.6-10.5-12.6-4.7.1-7.7 2.7-9.7 6m33.9 6.7c0 14-8.4 24.3-20.9 24.3-6.7 0-10.7-2.6-13-5.2v25.5H650v-68.1h12.2l.6 5.3c2.5-3.4 7-6.2 13.8-6.2 12.5 0 20.9 10.3 20.9 24.4"/><path fill="#28cc8b" d="M132.5 256.3l7.4 14.1h35.9c12.1 0 18-11.9 18-11.9l10.4-19.7H137c-3.5-.1-9.9 7.2-4.5 17.5z"/><path fill="#17a4ea" d="M154.3 312.8l-29.9-56.5c-5.7-10.7 1.4-15.7 5.6-17.6h-4.2c-6.7 0-13.5 3.3-16.2 8.5-.2.4-7.6 14.2-7.6 14.2-4.7 8.9-1.6 17.2 3.3 26.4l36.5 68.7s11.3-21.4 12.9-24.4c3.2-6.1 3.4-12.1-.4-19.3z"/><path fill="#ffcc69" d="M183.7 277.5h-40l15.5 29.1c6-.7 11.5-4.6 14.3-9.9 0 .1 10.2-19.2 10.2-19.2z"/></svg>