<svg xmlns="http://www.w3.org/2000/svg" width="1021.224" height="628.113" viewBox="0 0 1021.224 628.113">
  <g id="Group_1" data-name="Group 1" transform="translate(50.02 -7)">
    <g id="Group_3" data-name="Group 3" transform="translate(526.125 523.364)">
      <path id="Path_6" data-name="Path 6" d="M700.77,713.892c3.808,14.078,16.853,22.8,16.853,22.8s6.87-14.106,3.061-28.185-16.853-22.8-16.853-22.8S696.961,699.814,700.77,713.892Z" transform="translate(-680.248 -685.708)" fill="#175e81"/>
      <path id="Path_7" data-name="Path 7" d="M717.121,703.021c10.45,10.173,11.727,25.811,11.727,25.811s-15.667-.856-26.117-11.029S691,691.993,691,691.993,706.668,692.85,717.121,703.021Z" transform="translate(-691.003 -677.863)" fill="#17a4ea"/>
    </g>
    <g id="Group_2" data-name="Group 2" transform="translate(898.948 528.566)">
      <path id="Path_6-2" data-name="Path 6" d="M720.684,713.892c-3.808,14.078-16.853,22.8-16.853,22.8s-6.87-14.106-3.062-28.185,16.853-22.8,16.853-22.8S724.493,699.814,720.684,713.892Z" transform="translate(-699.62 -685.708)" fill="#175e81"/>
      <path id="Path_7-2" data-name="Path 7" d="M702.73,703.021C692.28,713.194,691,728.833,691,728.833s15.667-.856,26.117-11.029,11.727-25.811,11.727-25.811S713.182,692.85,702.73,703.021Z" transform="translate(-687.261 -677.863)" fill="#17a4ea"/>
    </g>
    <rect id="Rectangle_73" data-name="Rectangle 73" width="4" height="135" transform="translate(743.852 442.796)" fill="#175e81" opacity="0.73"/>
    <path id="Path_64" data-name="Path 64" d="M986.748,745.153c.4,86.856-60.708,157.551-60.708,157.551s-61.757-70.128-62.158-156.985,60.708-157.551,60.708-157.551S986.346,658.3,986.748,745.153Z" transform="translate(-180.93 -456.834)" fill="#17a4ea" opacity="0.72"/>
    <rect id="Rectangle_74" data-name="Rectangle 74" width="2" height="118" transform="translate(562.852 459.796)" fill="#175e81" opacity="0.57"/>
    <path id="Path_65" data-name="Path 65" d="M965.6,718.132c.331,71.907-50.259,130.433-50.259,130.433S864.213,790.508,863.882,718.6s50.259-130.433,50.259-130.433S965.267,646.226,965.6,718.132Z" transform="translate(-351.735 -385.356)" fill="#17a4ea" opacity="0.35"/>
    <path id="Path_1" data-name="Path 1" d="M1021.2,403.438a209.282,209.282,0,0,1-6.13,50.5q-2.064,8.349-4.795,16.352a193.013,193.013,0,0,1-7.734,19.352q-2.211,4.786-4.673,9.381a126.211,126.211,0,0,1-10.552,50.713,130.741,130.741,0,0,1-63.449,65.374,133.462,133.462,0,0,1-56.643,13.005H193.857A169.658,169.658,0,0,1,108.524,605.3l-.4-.225q-5.54-3.242-10.8-6.867a169.419,169.419,0,0,1-22.17-18.277,164.98,164.98,0,0,1-24.372-30.2A161.146,161.146,0,0,1,25.991,463.7C9.561,434.868-.02,400.334-.02,363.225c0-46.82,15.225-89.53,40.239-121.861A171.331,171.331,0,0,1,57.308,222.35a158.982,158.982,0,0,1,19.543-16,152.1,152.1,0,0,1,17.341-10.4c2.506-1.275,5.02-2.48,7.578-3.6,2.246-1,4.517-1.925,6.815-2.8q4.136-1.57,8.376-2.887t8.367-2.306q6.07-1.483,12.347-2.41c3.468-.512,6.936-.867,10.4-1.136,2.757-.208,5.54-.321,8.341-.355h1.517c3.087,0,6.156.121,9.2.329.321-.642.668-1.292.988-1.925,1.214-2.315,2.471-4.621,3.737-6.876a.236.236,0,0,1,0-.061c.217-.4.434-.789.659-1.171,1.023-1.847,2.09-3.676,3.182-5.488.5-.867,1-1.682,1.509-2.5a6.645,6.645,0,0,1,.355-.59q.78-1.3,1.587-2.6,4.015-6.416,8.35-12.607l.737-1.058c.451-.642.867-1.266,1.37-1.907,1.2-1.673,2.428-3.355,3.668-5,.867-1.179,1.734-2.35,2.67-3.468q3.381-4.335,6.936-8.67t7.387-8.558c.347-.39.694-.772,1.058-1.153l3.7-4.04h0c.182-.191.338-.364.512-.538h0c.442-.477.867-.954,1.344-1.413,1.986-2.107,4.023-4.17,6.069-6.225A330.409,330.409,0,0,1,256.162,76c.46-.364.928-.711,1.387-1.058,2.2-1.656,4.439-3.295,6.676-4.907a351.474,351.474,0,0,1,38.5-24.017c.919-.529,1.855-1.023,2.8-1.509a367.637,367.637,0,0,1,36.84-16.959c6.858-2.714,13.872-5.263,20.93-7.6,4.7-1.543,9.416-3.009,14.193-4.387q11.2-3.225,22.56-5.783A401.786,401.786,0,0,1,467.891.546Q478.295.017,488.933,0A403.178,403.178,0,0,1,590.376,12.832a3.659,3.659,0,0,0,3.147,1.639h2.913c1.266.347,2.523.694,3.789,1.058q10.6,3.052,20.9,6.667l1.734.624A373.208,373.208,0,0,1,672.206,44.5,356.17,356.17,0,0,1,713.52,70.021q3.043,2.185,6,4.4,3.59-2.3,7.3-4.4a143.573,143.573,0,0,1,30.242-12.893A137.939,137.939,0,0,1,824.9,54.475c28.829,6.113,54.926,21.286,76,42.866A177.382,177.382,0,0,1,923.7,126.283c.477.746.954,1.5,1.413,2.263a190.736,190.736,0,0,1,14.514,28.933c.147.373.295.72.425,1.084a200.412,200.412,0,0,1,8.93,28.915c.1.5.225,1,.329,1.5a208.24,208.24,0,0,1,4.266,28.933,5.6,5.6,0,0,0,.069,1.066q.546,7.552.555,15.26c0,4.6-.156,9.156-.442,13.682,0,.494-.07,1.006-.113,1.517-.078,1.309-.191,2.6-.3,3.919a164.653,164.653,0,0,1,18.537,17.488q3.788,4.136,7.335,8.584a182.617,182.617,0,0,1,18.9,28.933C1012.776,336.035,1021.2,368.592,1021.2,403.438Z" transform="translate(-50 7)" fill="#17a4ea" opacity="0.1" style="isolation: isolate"/>
    <path id="Path_2" data-name="Path 2" d="M939.814,700.8c0,5.922-20.4,11.471-56,16.24H210.442a169.656,169.656,0,0,1-85.333-22.812l-.4-.225c10.231-3.728,28.7-7.2,53.834-10.344h0l1.127-.139c11.271-1.379,23.869-2.688,37.638-3.928a8.579,8.579,0,0,0,1.049-.1h0q16.387-1.457,34.863-2.731c.39,0,.772-.069,1.162-.087q7.127-.511,14.549-.971h0l1.907-.121c36.025-2.237,76.975-4.023,121.384-5.2h.052q9.329-.26,18.858-.459,10.6-.251,21.45-.442c5.523-.121,11.115-.208,16.725-.295h.13c25.309-.381,51.458-.572,78.2-.572,66.12,0,128.615,1.205,183.993,3.373h.156c8.514.329,16.872.694,25.023,1.066l6.936.329q13.795.659,26.878,1.413h0C873.192,680.637,939.814,690.114,939.814,700.8Z" transform="translate(-23.234 -87.975)" fill="#17a4ea" opacity="0.1" style="isolation: isolate"/>
    <path id="Path_3" data-name="Path 3" d="M157.82,591.183l9.1-.026h12.823L195.952,327.77,356.517,59.832l-6.9-7.31-.076-19.152L175.889,321.562Z" transform="translate(-27.636 -3.506)" fill="#f1c0c0"/>
    <path id="Path_4" data-name="Path 4" d="M169.43,594.066h11.852L197.5,330.68,358.061,62.741,351.095,55.4,185.461,326.665Z" transform="translate(-29.18 -6.416)" opacity="0.1" style="isolation: isolate"/>
    <path id="Path_5" data-name="Path 5" d="M126.91,676.436l416.045,31.837.355.026,402.641-24.762.3-.017v-17l-443.66-8.141L132.45,658.02h-2.705l-.295,1.907Z" transform="translate(-23.526 -86.566)" fill="#f1c0c0"/>
    <path id="Path_6-3" data-name="Path 6" d="M126.91,676.436l416.045,31.837.355.026,402.641-24.762.3-.33V666.872H945.9L542.955,680.329,132.45,658.02h-.061l-.728.477-2.211,1.431Z" transform="translate(-23.526 -86.566)" opacity="0.1" style="isolation: isolate"/>
    <path id="Path_7-3" data-name="Path 7" d="M126.91,676.509l416.045,31.837V680.4L131.661,658.57,129.45,660Z" transform="translate(-23.526 -86.639)" opacity="0.1" style="isolation: isolate"/>
    <path id="Path_8" data-name="Path 8" d="M378.867,52.4,562.3,248.884l-5.67,346.292,15.581,1.881.26.035h15.581l1.864-333.339L933.372,378.479l5.792,204.272,12.537,1.4,4.248.477-9.832-220.321L587.08,238.263,390.212,33.6H378.88Z" transform="translate(-57.031 -3.537)" fill="#f1c0c0"/>
    <path id="Path_9" data-name="Path 9" d="M620.65,291.7l1.413,6.373L965.52,412.8l5.792,204.272,12.537,1.4L974.017,408.55Z" transform="translate(-89.178 -37.856)" opacity="0.1" style="isolation: isolate"/>
    <path id="Path_10" data-name="Path 10" d="M378.93,52.49,562.3,248.884l-5.67,346.292,15.581,1.881,4.248-359.506L378.88,33.6Z" transform="translate(-57.031 -3.537)" opacity="0.1" style="isolation: isolate"/>
    <path id="Path_11" data-name="Path 11" d="M621.42,448.541l125.971,24.806.043.009,220.633,43.464,10.1-4.049-.035-.711-.659-14.089L621.55,426.05Z" transform="translate(-89.281 -55.721)" fill="#f1c0c0"/>
    <path id="Path_12" data-name="Path 12" d="M766.76,480.61l220.633,43.464,10.1-4.049-.035-.711Z" transform="translate(-108.607 -62.976)" opacity="0.1" style="isolation: isolate"/>
    <path id="Path_13" data-name="Path 13" d="M776.49,350.56,779.9,538.133l1.76,96.232,15.511-.52,9.763-.329L803.9,353.274l-6.728-2.237-1.474-.477Z" transform="translate(-109.9 -45.683)" fill="#f1c0c0"/>
    <path id="Path_14" data-name="Path 14" d="M776.65,350.51v.043l3.269,187.573,1.76,96.232,15.511-.52V350.51Z" transform="translate(-109.922 -45.676)" opacity="0.1" style="isolation: isolate"/>
    <path id="Path_15" data-name="Path 15" d="M492.339,403.979a19.653,19.653,0,0,1,2.6,1.691,17.2,17.2,0,0,1,2.6,2.853c3.719,4.812,7.153,10.4,6.789,16.474a6.7,6.7,0,0,1-1.933,4.769c-1.535,1.309-3.737,1.37-5.748,1.37-2.185,0-4.483,0-6.373-1.127s-3.468-3.321-5.705-3.269a2.933,2.933,0,0,1-.954,0c-.772-.251-.928-1.266-1.431-1.907-.867-1.153-2.7-.867-4.058-.364s-2.87,1.257-4.214.676a4.38,4.38,0,0,1-1.829-1.829c-3.217-5.2-3.9-11.453-4.509-17.5-.373-3.676-3.217-16.213,4.63-13.361,3.468,1.249,6.711,3.746,9.867,5.575Z" transform="translate(-68.717 -51.198)" fill="#1a1d39"/>
    <path id="Path_16" data-name="Path 16" d="M487.075,406.516a3.867,3.867,0,0,0,4.76-.191,7.17,7.17,0,0,0,2.315-4.491c.867-.269,1.309.867,1.864,1.561.971,1.179,2.948,1.162,3.832,2.419.616.867.477,2.072.91,3.052.564,1.266,1.959,1.925,2.913,2.948a10.034,10.034,0,0,1,1.907,3.806L507,419.885a21.081,21.081,0,0,1,1.3,5.523,7.153,7.153,0,0,1-1.647,5.28c-1.907,2.055-5.037,2.272-7.8,2.211a10.032,10.032,0,0,1-2.74-.321c-2.454-.763-4.023-3.234-4.673-5.722s-.581-5.1-.962-7.647a29.945,29.945,0,0,0-2.168-7.266c-.763-1.8-2.861-4.491-2.826-6.407C486.1,405.536,486.555,406.108,487.075,406.516Z" transform="translate(-71.205 -52.495)" fill="#1a1d39"/>
    <path id="Path_17" data-name="Path 17" d="M489.1,395.4a14.333,14.333,0,0,1-.7-3.806c0-2.6,1.188-5.046,2.384-7.37l-9.91,1.344c-1.2.165-2.532.408-3.208,1.4a3.469,3.469,0,0,0,0,3.2,16.333,16.333,0,0,1,1.179,3.1,15.492,15.492,0,0,0,.321,2.783,5.9,5.9,0,0,0,1.275,1.795,60.11,60.11,0,0,1,7.075,10.508c-.061-.1,5.974-4.777,5.731-6.3-.139-.867-1.881-1.907-2.436-2.74A13.965,13.965,0,0,1,489.1,395.4Z" transform="translate(-70.113 -50.159)" fill="#be6f72"/>
    <path id="Path_18" data-name="Path 18" d="M561.3,358.04v8.54L415.062,395.106l-7.587,4.6H381.3v-4.812l143.684-34.716Z" transform="translate(-57.352 -46.678)" fill="#f1c0c0"/>
    <path id="Path_19" data-name="Path 19" d="M561.3,367.89,415.062,396.415l-7.587,4.6H381.3l144.751-30.979Z" transform="translate(-57.352 -47.987)" opacity="0.1" style="isolation: isolate"/>
    <path id="Path_20" data-name="Path 20" d="M449.755,637.029a11.333,11.333,0,0,0-13.786-2.931,3.631,3.631,0,0,0-1.266.988c-.867,1.214-.312,2.887-.234,4.387.2,3.659-2.714,6.633-5.332,9.191a12.607,12.607,0,0,0-3.468,4.7c-.633,1.864-.165,4.231,1.535,5.2a6.384,6.384,0,0,0,2.376.659,25.646,25.646,0,0,0,8.41.234,9.112,9.112,0,0,0,6.676-4.647,4.9,4.9,0,0,1,1.118-1.847c1.526-1.205,3.867.208,5.6-.65,1.431-.711,1.491-1.829,1.509-3.3C452.945,644.936,452.339,640.323,449.755,637.029Z" transform="translate(-63.216 -83.227)" fill="#4e2d10"/>
    <path id="Path_21" data-name="Path 21" d="M474.611,635.891a28.545,28.545,0,0,1,1.353,8.87c.078,1.734.13,3.589-.806,5.055a6.907,6.907,0,0,1-4.517,2.6c-3.616.746-7.8.043-10.136-2.826-1.786-2.194-2.159-5.2-1.829-8.046.277-2.332.867-5.064-.806-6.719-.434-.442-1-.754-1.4-1.231a4.131,4.131,0,0,1-.26-3.954,17.214,17.214,0,0,0,1.361-3.91c.069-.642,11.74.451,12.815.98,1.465.72,1.24,1.925,1.682,3.381C472.687,632.12,473.866,633.949,474.611,635.891Z" transform="translate(-67.264 -82.246)" fill="#4e2d10"/>
    <path id="Path_22" data-name="Path 22" d="M471.33,493.409c2.289,1.483,3.173,4.4,3.529,7.1.98,7.413-.737,14.9-.867,22.387-.121,10.482,2.913,21.156.321,31.308-1.552,6.069-.234,13.005-1.691,19.135-.434,1.821-1.231,3.537-1.647,5.358-.867,3.945.043,8.072,1.266,11.93a12.332,12.332,0,0,1,.737,3.234,11.636,11.636,0,0,1-1.266,4.89l-5.2,12.3c-.581,1.378-2.87,1.6-4.335,1.786-2.757.329-5.835.563-8.029-1.145s-2.722-4.569-3.061-7.24A111.027,111.027,0,0,1,450.217,589a12.723,12.723,0,0,0-.355-4.014c-.477-1.483-1.526-2.766-1.812-4.335-.364-2.029.668-4.023,1.049-6.069a18.278,18.278,0,0,0-.087-5.627c-.338-2.774-.728-5.549-1.17-8.306-.624-3.858.269-7.664.867-11.531.564-3.633-.156-7.335-.867-10.942a30.158,30.158,0,0,1-1.084,8.67c-.46,1.379-1.118,2.7-1.517,4.1-1.777,6.3,2.012,12.919,1.474,19.448-.251,3.052-1.448,6.069-1.11,9.078.234,2.2,1.257,4.222,1.959,6.321s1.066,4.5,0,6.459c-2.818,5.324-.711,12.563,1.812,18.026a24.269,24.269,0,0,1,1.335,3c.746,2.462.121,5.107.321,7.673a4.837,4.837,0,0,1-4.066-1.223c-.381-.4-.694-.867-1.066-1.283a10.587,10.587,0,0,0-3.624-2.263,4.762,4.762,0,0,0-2.6-.6,5.2,5.2,0,0,0-2.471,1.535,24.2,24.2,0,0,1-2.723,2.072,3.22,3.22,0,0,1-1.387.616,1.222,1.222,0,0,1-1.275-.65,1.517,1.517,0,0,1-.1-.451,68.768,68.768,0,0,1-.512-7.89c0-4.535-5.428-7.656-6.113-12.138-.546-3.616.468-7.3.13-10.942a53.223,53.223,0,0,1-.65-5.584c0-1.214.277-2.4.373-3.607a26.98,26.98,0,0,0-.061-4.014l-.269-4.188c-.26-4.136-.546-8.358-2.176-12.138a41.258,41.258,0,0,1-3.381-13.942c-.173-3.035-.061-6.069-.408-9.112-.312-2.749-1.006-5.48-.806-8.237.165-2.133.867-4.2,1.032-6.329.338-4.1-1.223-8.089-2.445-12.017s-2.124-8.28-.52-12.069a3.957,3.957,0,0,1,1.11-1.613,4.843,4.843,0,0,1,2.046-.763,158.755,158.755,0,0,1,45.276-2.887A15.042,15.042,0,0,1,471.33,493.409Z" transform="translate(-61.841 -64.321)" fill="#1a1d39"/>
    <circle id="Ellipse_1" data-name="Ellipse 1" cx="13.89" cy="13.89" r="13.89" transform="translate(346.378 309.221)" fill="#be6f72"/>
    <path id="Path_23" data-name="Path 23" d="M419.268,389.512a4.966,4.966,0,0,1,0,2.419,5.493,5.493,0,0,1-.91,1.526,39.231,39.231,0,0,1-4.448,4.838,8.053,8.053,0,0,0,4.153,4.1,24.11,24.11,0,0,0,5.731,1.639,8.08,8.08,0,0,0,3.017.208,8,8,0,0,0,2.6-1.179l7.717-4.621a15.42,15.42,0,0,0,3.208-2.315,7.9,7.9,0,0,0,2.237-5.428,1.492,1.492,0,0,0-.277-1.023,1.819,1.819,0,0,0-1.058-.442,9.4,9.4,0,0,1-6.069-5.3,28.028,28.028,0,0,1-2.107-8.037l-8.228,4.335c-1.223.65-2.436,1.3-3.7,1.864-.806.364-2.436.668-3.009,1.4C417.031,384.865,418.982,387.874,419.268,389.512Z" transform="translate(-61.688 -49.052)" fill="#be6f72"/>
    <path id="Path_24" data-name="Path 24" d="M413.527,397.463a9.152,9.152,0,0,0-2.662,3.6c-.538,1.734,0,3.564.486,5.28a157.47,157.47,0,0,1,5.2,22.361c.728,5.2,1,10.482,1.353,15.745.728,10.734,1.786,27.849,3.2,38.514,5.2.234,10.274-1.283,15.433-1.838,9.641-1.023,19.569,1.318,29.011-.867-2.289-9.043-4.578-24.485-6.867-33.519a63.981,63.981,0,0,1-2.1-10.881c-.2-2.644-.078-5.3-.043-7.959.078-5.2-.208-10.4-.494-15.607-.329-6.069-.659-12.138-2.1-18.078a3.368,3.368,0,0,0-1.006-1.986c-.867-.633-1.994-.408-3.026-.269a13.158,13.158,0,0,1-9-2.133c-1.145-.78-2.679-1.734-3.746-.867a3.729,3.729,0,0,0-.867,1.847,9.234,9.234,0,0,1-5.428,5.35,27.168,27.168,0,0,1-7.682,1.578,3.77,3.77,0,0,1-2.384-.269c-1.231-.754-1.318-3.468-2.87-3.65C416.579,393.657,414.447,396.587,413.527,397.463Z" transform="translate(-61.254 -50.743)" fill="#1a1d39"/>
    <path id="Path_25" data-name="Path 25" d="M431.682,418.724c-3.2-3.061-4.6-7.5-6.936-11.271a25.1,25.1,0,0,0-5.991-6.589,17.877,17.877,0,0,1-3.26-2.766c-.824-1.014-1.448-2.367-2.7-2.757a3.26,3.26,0,0,0-2.922.806,28.678,28.678,0,0,0-2.168,2.306c-3.676,3.806-10.136,4.335-13.049,8.74a7.163,7.163,0,0,0-1.552,3.251,25.2,25.2,0,0,0,4.63,18.121,6.156,6.156,0,0,0,3.208,2.6,10.041,10.041,0,0,0,.624,4.769,127.639,127.639,0,0,0,5.9,16.083,38.833,38.833,0,0,0-1.162,6.234c-.607,5.3-.043,10.673-.616,15.979-.468,4.335-1.734,8.558-1.777,12.9,0,.694.061,1.517.659,1.873a1.99,1.99,0,0,0,1.032.217l10.664.321c6.191.182,12.442.364,18.537-.78a7.745,7.745,0,0,0,2.332-.737c2.064-1.153,2.749-3.754,3.078-6.069a52.878,52.878,0,0,0,.512-9.069c1.292,4.084,2.826,8.306,6.728,10.075,2.064.936,4.422.867,6.685.806a125.911,125.911,0,0,0,14.557-1.5,1.918,1.918,0,0,0,2.138-1.666,1.943,1.943,0,0,0-.014-.563l.052-4.734c.1-9.615-2.28-18.806-3.208-28.378-.295-3.017-.269-6.069-1.006-9.026-.3-1.24-.746-2.454-1.014-3.7a26.44,26.44,0,0,1-.434-3.7l-.676-9.537c-.321-4.413-.78-8.67-1.118-13.075a63.246,63.246,0,0,0-1.855-12.711c-.754-2.6-2.324-5.549-5.037-5.87a10.384,10.384,0,0,0-4.231.91,17.1,17.1,0,0,1-10.4-.043,14.628,14.628,0,0,0-3.243-.867,3.181,3.181,0,0,0-2.965,1.231,4.453,4.453,0,0,0-.46,2.185C434.82,401.383,434.066,410.305,431.682,418.724Z" transform="translate(-58.894 -50.831)" fill="#17a4ea"/>
    <path id="Path_26" data-name="Path 26" d="M417.85,421.585c-4-4.214-8.1-8.506-13.248-11.185a10.582,10.582,0,0,0-6.581-1.457c-2.246.4-4.335,2.35-4.231,4.63.069,1.413.928,2.662,1.2,4.049.312,1.561-.139,3.225.347,4.734a8.009,8.009,0,0,0,1.734,2.662l6.139,7.274c2.6,3.035,5.2,6.113,8.549,8.211s7.682,3.078,11.358,1.587a13.955,13.955,0,0,0,6.225-5.714c1.526-2.428,2.6-5.081,4.032-7.587a37.675,37.675,0,0,1,8.67-10.517c-1.8-.468-4.066-1.127-5.2-2.6a8.588,8.588,0,0,1-.824-1.491l-1.4-3.035a3.47,3.47,0,0,0-2.6.98,21.918,21.918,0,0,1-1.933,1.968c-1.223.919-2.879,1.171-3.988,2.22a10.554,10.554,0,0,0-1.162,1.457A9.731,9.731,0,0,1,417.85,421.585Z" transform="translate(-59.013 -53.432)" fill="#1a1d39"/>
    <path id="Path_27" data-name="Path 27" d="M448.395,398.85c3.009-5.488,2.87-12.069,3.728-18.268a8.343,8.343,0,0,1,1.656-4.535c1.734-1.96,4.795-1.986,7.413-1.734.772.087,1.734.451,1.691,1.223a1.56,1.56,0,0,1-.39.737,20.626,20.626,0,0,0-4.283,11.375c1.361.945,3.468-1,4.777,0,.867.728.468,2.168-.052,3.208q-1.812,3.615-3.737,7.179a23.04,23.04,0,0,1-3.962,5.714c-1.1,1.058-2.393,1.89-3.511,2.931-2.6,2.436-4.17,5.878-6.858,8.254a1.4,1.4,0,0,1-.867.442,1.459,1.459,0,0,1-.91-.408,13.149,13.149,0,0,1-3.277-3.962c-1.023-1.89-.867-2.445.746-3.78C443.574,404.841,446.513,402.283,448.395,398.85Z" transform="translate(-65.047 -48.827)" fill="#be6f72"/>
    <path id="Path_28" data-name="Path 28" d="M413.246,417.462c.52.321,1.162.685,1.734.416a1.794,1.794,0,0,0,.581-.564,20.415,20.415,0,0,0,2.462-4.283,1.64,1.64,0,0,0,.182-.694c0-.555-.494-.962-.954-1.283a35.34,35.34,0,0,0-7.881-3.746,16.262,16.262,0,0,0-7.11-1.4,6.781,6.781,0,0,0-4.743,2.41c-1.734,2.228,1.171,2.9,2.991,3.711C404.723,413.942,409.284,415.051,413.246,417.462Z" transform="translate(-59.438 -53.037)" fill="#17a4ea"/>
    <path id="Path_29" data-name="Path 29" d="M412.588,435.034a1.272,1.272,0,0,0,.364,1.093c.251-1.231-.078-2.532.182-3.772.381-1.864,2.194-3.269,2.35-5.141C412.163,426.563,412.614,433.022,412.588,435.034Z" transform="translate(-61.511 -55.869)" opacity="0.1" style="isolation: isolate"/>
    <path id="Path_30" data-name="Path 30" d="M583.34,358.04v8.54l-35.253,2.142-1.066-8.549Z" transform="translate(-79.388 -46.678)" opacity="0.2" style="isolation: isolate"/>
    <path id="Path_31" data-name="Path 31" d="M408.12,370.824c2.2-1.795.928-5.558,2.419-7.968a7.741,7.741,0,0,1,3.772-2.6,17.172,17.172,0,0,1,5.506-1.526,6.392,6.392,0,0,1,5.2,1.916c.564.642.945,1.422,1.474,2.09a5.635,5.635,0,0,0,5.462,1.89c1.153-.26,2.35-1.136,2.272-2.315a3.271,3.271,0,0,0-1.04-1.855l-2.48-2.749c-2.818-3.121-5.948-6.433-10.084-7.214-2.879-.546-5.826.225-8.6,1.153-1.118.373-2.376.928-2.688,2.064-.208.78.1,1.63-.078,2.419-.355,1.569-2.367,2.1-3.3,3.416s-.65,2.879-.919,4.335-1.049,2.879-1.144,4.387c-.061.91.4,2.6,1.422,2.931S407.487,369.74,408.12,370.824Z" transform="translate(-60.355 -45.65)" fill="#1a1d39"/>
    <path id="Path_32" data-name="Path 32" d="M433.272,359.969a26.005,26.005,0,0,0-4.613-10.543,18.472,18.472,0,0,0-8.211-6.52,11.758,11.758,0,0,0-10.222.806,14.844,14.844,0,0,0-5.107,6.442c-2.246,4.838-3.078,10.751-.468,15.4,1.04-1.266,2.827-.694,4.4-1.153,1.977-.564,3.65-1.882,5.532-2.705C420.267,359.189,427.2,361.218,433.272,359.969Z" transform="translate(-60.242 -44.558)" fill="#fed253"/>
    <path id="Path_33" data-name="Path 33" d="M406.393,361.681c-.2-1.561-.329-3.373.78-4.483a.563.563,0,0,1,.46-.208.6.6,0,0,1,.355.312,19.4,19.4,0,0,1,1.63,3.191,3.313,3.313,0,0,0-3.468,1.344" transform="translate(-60.657 -46.538)" opacity="0.1" style="isolation: isolate"/>
    <path id="Path_34" data-name="Path 34" d="M429.738,356.659l-.312-3.1a1.412,1.412,0,0,1,.061-.763.979.979,0,0,1,1.266-.347,2.605,2.605,0,0,1,1.014,1.014A18.251,18.251,0,0,1,433.552,357a10.494,10.494,0,0,0-4.222.052" transform="translate(-63.739 -45.921)" opacity="0.1" style="isolation: isolate"/>
    <path id="Path_35" data-name="Path 35" d="M433.015,502.21v7.075l-5.974.4H395.62V502.21Z" transform="translate(-59.256 -65.848)" opacity="0.1" style="isolation: isolate"/>
    <path id="Path_36" data-name="Path 36" d="M417.779,483.37v7.474h-37.4L281.04,366.4V360.52h20.826Z" transform="translate(-44.021 -47.007)" fill="#f1c0c0"/>
    <path id="Path_37" data-name="Path 37" d="M417.779,483.37v7.474h-37.4L281.04,366.4V360.52h20.826Z" transform="translate(-44.021 -47.007)" opacity="0.1" style="isolation: isolate"/>
    <path id="Path_38" data-name="Path 38" d="M417.779,483.37v7.474h-37.4L281.04,366.4V360.52l99.882,122.85Z" transform="translate(-44.021 -47.007)" opacity="0.1" style="isolation: isolate"/>
    <path id="Path_39" data-name="Path 39" d="M294.471,645.17a2.6,2.6,0,0,1-2.082,3.033c-.063.011-.127.021-.19.028-2.41.815-4.968,1.621-6.676,3.468s-2.046,5.272,0,6.771a6.573,6.573,0,0,0,3.468.945c3.928.269,8.02.217,11.584-1.448,2.549-1.179,4.951-3.191,7.751-3.009,1.448.087,2.991.763,4.283.1s1.656-2.5,1.665-4.032a29.846,29.846,0,0,0-1.431-9.442c-.13-.416-5.644-.737-6.3-.867l-6.685-.867c-1.266-.165-4-1.119-4.994-.061S294.471,643.913,294.471,645.17Z" transform="translate(-44.429 -84.077)" fill="#4e2d10"/>
    <path id="Path_40" data-name="Path 40" d="M342.034,619.135a20.894,20.894,0,0,0,1.37,4.543c.928,2.358,2.116,4.864,4.387,6.009a7.831,7.831,0,0,0,6.693-.321,5.512,5.512,0,0,0,2.228-1.691,6.712,6.712,0,0,0,.867-3.893c0-3.355-.2-6.824-1.734-9.806-1.318-2.6-3.616-4.838-3.65-7.716l-7.9,1.526a2.257,2.257,0,0,0-1.162.46,2,2,0,0,0-.5.945A25.806,25.806,0,0,0,342.034,619.135Z" transform="translate(-52.1 -79.683)" fill="#4e2d10"/>
    <path id="Path_41" data-name="Path 41" d="M233.257,523.914c-.329,2.792-.191,5.783,1.266,8.193s4.526,4.006,7.179,3.043a1.048,1.048,0,0,0,.65-.494,1.225,1.225,0,0,0-.113-.867,12.8,12.8,0,0,1,.269-9.641c.173-.4.546-.867.954-.711a.865.865,0,0,1,.39.4,4.54,4.54,0,0,1,.607,2.393,8.906,8.906,0,0,0-.069,2.3c.165.746.962,1.448,1.656,1.127a1.736,1.736,0,0,0,.789-1.119c1.933-5.592,1.058-11.7.173-17.557a.92.92,0,0,0-.867-.968.948.948,0,0,0-.165.006c-4.092-.408-6.329-1.387-8.67,2.419C235.295,515.643,233.257,520.056,233.257,523.914Z" transform="translate(-37.647 -66.83)" fill="#17a4ea"/>
    <path id="Path_42" data-name="Path 42" d="M288.074,509.318c-1.214,5.046-2.436,10.153-2.514,15.338a70.471,70.471,0,0,0,.728,9.65l.91,7.508c.312,2.532.616,5.055,1.058,7.561a20.083,20.083,0,0,1,.46,3.928,21.051,21.051,0,0,1-.616,3.858,45.094,45.094,0,0,0-.91,8.063c-.1,4.335.442,8.67.78,13.005a144.84,144.84,0,0,1-.3,25.942,9.727,9.727,0,0,0,1.422,6.685,8.593,8.593,0,0,1,1.257,2.064c.65,1.985-.867,3.971-1.257,6.009a6.069,6.069,0,0,0,5.046,6.936c6.936.824,14.063.451,20.315,3.624.659-1.925-.78-4.11-.121-6.069.416-1.214,1.561-2,2.341-3.026a8.808,8.808,0,0,0,1.491-5.289,19.333,19.333,0,0,0-1.283-7.17c-.737-1.908-1.795-3.789-1.734-5.835,0-1.006.355-2.064-.052-2.991a4.666,4.666,0,0,0-1.119-1.4,17.626,17.626,0,0,1-4.535-10.274,47.319,47.319,0,0,1,.364-11.393c.425-3.589,1-7.378,3.277-10.179a65.3,65.3,0,0,1,1.829-25.361c.225-.763.581-1.647,1.361-1.829a1.942,1.942,0,0,1,1.665.659,11.366,11.366,0,0,1,2.6,4.89c.65,1.916,1.309,3.962.815,5.922-.208.867-.624,1.63-.867,2.462a7.3,7.3,0,0,0,.26,5.089,4.888,4.888,0,0,1,.624,1.916,5.3,5.3,0,0,1-.52,1.665,7.667,7.667,0,0,0,.72,6.2,22.448,22.448,0,0,0,4.049,4.968,18.2,18.2,0,0,0,.564,10.023,1.264,1.264,0,0,1,.113.962c-.156.329-.555.451-.867.685-.867.711-.329,2.055.251,2.983a68.325,68.325,0,0,0,5.263,7.3c1.734,2.072,1.578,6.069,4.162,6.815a7.789,7.789,0,0,0,3.295,0c2.549-.39,5.393-1.127,6.641-3.381.512-.928.72-2.055,1.517-2.748s1.829-.815,2.272-1.647-.052-1.925.1-2.887.988-1.734,1.257-2.749c.642-2.341-2.09-4.266-2.462-6.659-.538-3.468,3.832-6.069,3.65-9.537-.382-7.534-.624-15.1-1.014-22.638a163.187,163.187,0,0,1-.208-20.28c.3-4.205.867-8.61-.676-12.52-2.22-5.514-8.341-8.61-14.263-9.2s-11.826.815-17.7,1.734A111.85,111.85,0,0,1,288.074,509.318Z" transform="translate(-44.622 -66.462)" fill="#1a1d39"/>
    <circle id="Ellipse_2" data-name="Ellipse 2" cx="13.89" cy="13.89" r="13.89" transform="translate(247.163 332.206)" fill="#fbbebe"/>
    <path id="Path_43" data-name="Path 43" d="M301.354,415.77a5.922,5.922,0,0,1-5.662,3.581c-.5,2.081.7,4.179,2.081,5.818a24.694,24.694,0,0,0,23.635,8.107,11.655,11.655,0,0,0,4.656-1.942,10.326,10.326,0,0,0,3.555-6.156,30.624,30.624,0,0,0,.338-7.24,1.871,1.871,0,0,0-.381-1.335,1.907,1.907,0,0,0-1.214-.4c-2.931-.26-5.991-.373-8.566-1.812s-4.4-4.691-3.165-7.361c-.2.416-5.263.616-5.93.7-2.09.295-4.179.624-6.26,1.006a11.394,11.394,0,0,0-2.939.555c-1.257.65-.789.329-.494,1.509C301.449,412.605,302.1,413.9,301.354,415.77Z" transform="translate(-45.954 -53.192)" fill="#fbbebe"/>
    <path id="Path_44" data-name="Path 44" d="M304.174,425.3a23.019,23.019,0,0,1-5.558-.616,7.8,7.8,0,0,1-4.561-3.043c-.642-.971-1.058-2.194-2.081-2.74-1.673-.867-3.581.6-4.916,1.942a17.841,17.841,0,0,1-4.179,3.364c-1.855.98-4.023,1.327-5.774,2.48a14.515,14.515,0,0,0-3.468,3.746l-12.286,16.734c-4.933,6.728-9.225,13.951-13.621,21.052-3.806,6.147-5.8,13.222-8.67,19.855a2.218,2.218,0,0,0-.269,1.335c.1.451.65.815,1.032.555-1.292,1.283-.156,3.468-.46,5.272a6.472,6.472,0,0,1-2.064,3.234,16.306,16.306,0,0,1,5.722.269,17.543,17.543,0,0,1,5.41,2.6c1.049-.165.954-2.029,1.734-2.722.468-.407,1.162-.355,1.777-.477,2.315-.451,3.234-3.234,5.011-4.8,1.483-1.309,3.581-1.734,5.15-2.965,2.549-2,3.1-5.566,4.431-8.523,1.136-2.506,2.922-4.691,3.919-7.257.65-1.665.962-3.468,1.89-5,1.483-2.48,4.274-3.8,6.936-4.985a11.486,11.486,0,0,1,5.28-1.413c-.1,4.032-.607,8,.269,11.939.3,1.387.728,2.74,1.092,4.118a77.551,77.551,0,0,1,2.124,19.075,58.07,58.07,0,0,1,12.138-1.457c3.217-.1,6.425.321,9.641.26,3.815-.069,7.587-.806,11.4-1.066s7.8,0,11.176,1.734a106.125,106.125,0,0,1,.46-16.474l.919-8.618a52.972,52.972,0,0,1,1.153-7.439c.5-1.977,1.231-3.884,1.786-5.852,1.951-6.936,1.6-14.341,1.223-21.563a27.18,27.18,0,0,0-3.3-10.664,28.818,28.818,0,0,0-2.081-3.537,20.49,20.49,0,0,0-17.913-8.41,3.629,3.629,0,0,0-1.283.277,4.273,4.273,0,0,0-1.639,1.951A21.243,21.243,0,0,1,304.174,425.3Z" transform="translate(-38.205 -54.277)" fill="#1a1d39"/>
    <path id="Path_45" data-name="Path 45" d="M294.018,400.133c.39-.867,1.439-1.188,2.081-1.881,1.231-1.318.676-3.425.867-5.2a7.473,7.473,0,0,1,4.942-5.705,15.965,15.965,0,0,1,7.8-.494,7.541,7.541,0,0,1,3.52,1.171c.451.329.867.754,1.292,1.058a3.468,3.468,0,0,0,4.717-1.1c-3.069-3.694-6.468-7.6-11.133-8.731a22.847,22.847,0,0,0-4.864-.46,15.8,15.8,0,0,0-6.381.746,10.637,10.637,0,0,0-5.6,6.468,31.447,31.447,0,0,0-1.361,8.67,32.663,32.663,0,0,0,0,5.9,16.3,16.3,0,0,0,2.9,7.43,2.248,2.248,0,0,0,.867.806C297.616,410.538,293.7,400.853,294.018,400.133Z" transform="translate(-45.181 -49.434)" fill="#1a1d39"/>
    <path id="Path_46" data-name="Path 46" d="M318.346,384.47c-.477-4.084-3.39-7.456-6.485-10.17a23.915,23.915,0,0,0-8.714-5.246,11.643,11.643,0,0,0-9.832,1.2,15.106,15.106,0,0,0-4.786,6.581,20.714,20.714,0,0,0-2.09,9.537,10.282,10.282,0,0,0,4.656,8.254,8.756,8.756,0,0,1,4.509-2.9A220.734,220.734,0,0,1,318.346,384.47Z" transform="translate(-44.738 -48.068)" fill="#fed253"/>
    <path id="Path_47" data-name="Path 47" d="M292.765,384.96c.277,0,.46.286.6.52a21.975,21.975,0,0,1,1.812,3.468c-1.014.217-2.757.46-3.26-.434C291.647,388.064,291.968,384.917,292.765,384.96Z" transform="translate(-45.455 -50.257)" opacity="0.1" style="isolation: isolate"/>
    <path id="Path_48" data-name="Path 48" d="M315.631,382.043c-.208.2-.451-.208-.451-.5v-3.364a.493.493,0,0,1,.061-.269.406.406,0,0,1,.286-.139c.7-.078,1.283.52,1.734,1.092a18.288,18.288,0,0,1,1.777,2.957l-3.668-.113" transform="translate(-48.56 -49.3)" opacity="0.1" style="isolation: isolate"/>
    <path id="Path_49" data-name="Path 49" d="M364.23,443.532a22.635,22.635,0,0,1,2.549-2.09c2.4-1.6,5.306-2.237,8-3.26s5.436-2.679,6.485-5.367a12.743,12.743,0,0,0,.5-5.2,5.2,5.2,0,0,0-.382-2.142,4.264,4.264,0,0,0-1.37-1.491c-3.659-2.705-8.566-2.922-13.11-2.644a82.175,82.175,0,0,0-28.967,7.231,2.517,2.517,0,0,0-1.214.867,2.482,2.482,0,0,0-.234,1.205,19.942,19.942,0,0,0,.98,7.552c1.2,3.087,3.659,5.575,4.691,8.722.468,1.413.624,2.913,1.032,4.335a6.068,6.068,0,0,0,2.436,3.624c3.425,2.046,6.659-.7,9.034-2.835Z" transform="translate(-51.389 -55.082)" fill="#1a1d39"/>
    <path id="Path_50" data-name="Path 50" d="M312,454.452l-4.4-9.589a33.6,33.6,0,0,1-1.665-4.1c-.5-1.673-.746-3.407-1.214-5.089-1.543-5.6-5.436-10.266-7.335-15.754a2.989,2.989,0,0,0-.711-1.327,2.315,2.315,0,0,0-1.934-.347c-2.653.459-4.725,2.48-7.153,3.624-1.127.52-2.341.867-3.468,1.465A4.335,4.335,0,0,0,281.8,426.1c-.269,1.327.39,2.6.945,3.893,2.358,5.324,2.9,11.271,3,17.1.078,3.919-.121,8.124-2.436,11.271-4.448,6.069-1.6,14.982.061,22.326.2.867.434,1.8.572,2.722a25.06,25.06,0,0,1,.2,3.468c0,3.893-.217,7.907-1.847,11.436a12.792,12.792,0,0,0,5.2,1.474q7.552.962,15.164,1.353a16.543,16.543,0,0,0,4.76-.243,8.67,8.67,0,0,0,6.407-8.5c.277,2.4.789,5.012,2.532,6.676s4.283,1.916,6.65,2.046a123.64,123.64,0,0,0,20.028-.564,3.466,3.466,0,0,0,1.231-.286c1.283-.642,1.353-2.41,1.249-3.832-.191-2.662-.39-5.324-.711-7.968a32.6,32.6,0,0,1-.416-5.1,29.357,29.357,0,0,1,.867-5.2c1.162-5.41,2.081-10.933,1.691-16.474a27.826,27.826,0,0,1-.165-4.066c.225-3.061,1.838-5.974,1.535-9.017-.867-8.948-1.569-18.13-4.066-26.765-.451-1.543-1.023-3.2-2.367-4.084-1.734-1.162-4.17-.555-6.156-1.292a15.362,15.362,0,0,1-2.644-1.569,12.138,12.138,0,0,0-5.974-1.838,5.071,5.071,0,0,0-4.335,1.578,6.3,6.3,0,0,0-.867,2.367c-1.257,5.289-2.731,10.517-4.205,15.745l-1.413,5.011L312.5,451.227C312.125,452.658,312.377,453.1,312,454.452Z" transform="translate(-44.006 -53.994)" fill="#17a4ea"/>
    <path id="Path_51" data-name="Path 51" d="M339.792,400.25l83.868,88.134v7.474H386.264L323.24,413.6" transform="translate(-49.632 -52.29)" fill="#f1c0c0"/>
    <path id="Path_52" data-name="Path 52" d="M339.792,400.25l83.868,88.134v7.474H386.264L323.24,413.6" transform="translate(-49.632 -52.29)" opacity="0.1" style="isolation: isolate"/>
    <path id="Path_53" data-name="Path 53" d="M324.575,414.31l.269.1L386.8,490.253h36.857v7.474H386.264L323.24,415.472Z" transform="translate(-49.632 -54.16)" opacity="0.1" style="isolation: isolate"/>
    <path id="Path_54" data-name="Path 54" d="M334.762,415.894c-3.035,1.327-6.407,3.026-7.318,6.217a3.574,3.574,0,0,0-.113,1.734,3.539,3.539,0,0,0,3.182,2.436,10.407,10.407,0,0,0,4.17-.763l17.9-5.913c.486-.156,1.04-.39,1.162-.867a1.491,1.491,0,0,0-.173-.867c-.555-1.353-1.1-4.118-2.263-5.063-.954-.763-2.844-.494-4-.477C342.877,412.366,338.707,414.16,334.762,415.894Z" transform="translate(-50.168 -53.889)" fill="#17a4ea"/>
    <path id="Path_55" data-name="Path 55" d="M353.734,420.03a28.785,28.785,0,0,1,8.887,1.379,15.829,15.829,0,0,1,7.361,5.029,5.523,5.523,0,0,1,1.162,2.272c.173.867,3,1.387,2.376,1.977,1.9-.3,1.448.59,3.373.572s4.006-.512,5.159-2.046a6.7,6.7,0,0,0,1.014-4.24,7.224,7.224,0,0,0-.572-3c-.867-1.821-2.861-2.8-4.7-3.642l-15.485-7.084a10.3,10.3,0,0,0-2.861-1.014,10.683,10.683,0,0,0-2.523.061l-7.014.806a10.516,10.516,0,0,1,4.795,9.251" transform="translate(-53.178 -53.611)" fill="#1a1d39"/>
  </g>
</svg>
