<svg xmlns="http://www.w3.org/2000/svg" width="40" height="40" viewBox="0 0 40 40">
  <path id="question-circle-regular" d="M28,8A20,20,0,1,0,48,28,20,20,0,0,0,28,8Zm0,36.129A16.129,16.129,0,1,1,44.129,28,16.119,16.119,0,0,1,28,44.129Zm8.649-20.581c0,5.407-5.84,5.491-5.84,7.489v.511a.968.968,0,0,1-.968.968H26.159a.968.968,0,0,1-.968-.968v-.7c0-2.883,2.185-4.035,3.837-4.961,1.416-.794,2.284-1.334,2.284-2.385,0-1.391-1.774-2.314-3.208-2.314-1.87,0-2.733.885-3.947,2.417a.968.968,0,0,1-1.344.171l-2.244-1.7a.97.97,0,0,1-.213-1.32,9.065,9.065,0,0,1,8.111-4.37C32.425,16.387,36.649,19.476,36.649,23.548ZM31.387,37.032A3.387,3.387,0,1,1,28,33.645,3.391,3.391,0,0,1,31.387,37.032Z" transform="translate(-8 -8)" fill="#e87c1e"/>
</svg>
