<svg xmlns="http://www.w3.org/2000/svg" width="1137" height="558.736" viewBox="0 0 1137 558.736">
  <path id="Path_1" data-name="Path 1" d="M175.764,701.583l-1.951-.439c21.756-96.751,76.43-184.609,153.951-247.392A444.114,444.114,0,0,1,1039.92,699.963l-1.949.443C991.916,498.2,814.7,356.972,607,356.972,402.026,356.972,220.666,501.9,175.764,701.583Z" transform="translate(-31.5 -150.293)" fill="#175e81"/>
  <circle id="Ellipse_1" data-name="Ellipse 1" cx="54.315" cy="54.315" r="54.315" transform="translate(903.318 253.054)" fill="#ffcc69"/>
  <rect id="Rectangle_1" data-name="Rectangle 1" width="2" height="79" transform="translate(877 477.736)" fill="#175e81"/>
  <path id="Path_2" data-name="Path 2" d="M928.958,638.1c.127,27.624-19.308,50.108-19.308,50.108s-19.642-22.3-19.769-49.928,19.308-50.108,19.308-50.108S928.83,610.472,928.958,638.1Z" transform="translate(-31.5 -150.293)" fill="#17a4ea"/>
  <path id="Path_3" data-name="Path 3" d="M928.958,638.1c.127,27.624-19.308,50.108-19.308,50.108s-19.642-22.3-19.769-49.928,19.308-50.108,19.308-50.108S928.83,610.472,928.958,638.1Z" transform="translate(-31.5 -150.293)" opacity="0.1"/>
  <circle id="Ellipse_2" data-name="Ellipse 2" cx="31.248" cy="31.248" r="31.248" transform="translate(469.774 257.977)" fill="#17a4ea" opacity="0.4"/>
  <circle id="Ellipse_3" data-name="Ellipse 3" cx="21.92" cy="21.92" r="21.92" transform="translate(421.27 282.237)" fill="#17a4ea" opacity="0.4"/>
  <circle id="Ellipse_4" data-name="Ellipse 4" cx="21.92" cy="21.92" r="21.92" transform="translate(186.27 345.288)" fill="#17a4ea" opacity="0.4"/>
  <circle id="Ellipse_5" data-name="Ellipse 5" cx="31.248" cy="31.248" r="31.248" transform="translate(889.504 311.404)" fill="#17a4ea" opacity="0.4"/>
  <path id="Path_4" data-name="Path 4" d="M88.131,698.244c1.694,6.262,7.5,10.14,7.5,10.14s3.056-6.274,1.362-12.536-7.5-10.14-7.5-10.14S86.437,691.982,88.131,698.244Z" transform="translate(-31.5 -150.293)" fill="#175e81"/>
  <path id="Path_5" data-name="Path 5" d="M90.62,696.9c4.648,4.525,5.216,11.481,5.216,11.481s-6.968-.38-11.617-4.905S79,691.993,79,691.993,85.971,692.374,90.62,696.9Z" transform="translate(-31.5 -150.293)" fill="#17a4ea"/>
  <path id="Path_6" data-name="Path 6" d="M700.131,698.244c1.694,6.262,7.5,10.14,7.5,10.14s3.056-6.274,1.362-12.536-7.5-10.14-7.5-10.14S698.437,691.982,700.131,698.244Z" transform="translate(-31.5 -150.293)" fill="#175e81"/>
  <path id="Path_180" data-name="Path 180" d="M700.014,696.864a17.693,17.693,0,0,0,5.787,9.024s2.359-5.584,1.051-11.156a17.693,17.693,0,0,0-5.787-9.024S698.707,691.291,700.014,696.864Z" transform="translate(169.753 -147.796)" fill="#175e81"/>
  <path id="Path_7" data-name="Path 7" d="M702.62,696.9c4.648,4.525,5.216,11.481,5.216,11.481s-6.969-.38-11.617-4.905S691,691.993,691,691.993,697.971,692.374,702.62,696.9Z" transform="translate(-31.5 -150.293)" fill="#17a4ea"/>
  <path id="Path_179" data-name="Path 179" d="M697.854,695.086a13.171,13.171,0,0,1,3.076,7.239,11.432,11.432,0,0,1-6.851-3.093A13.172,13.172,0,0,1,691,691.993,11.437,11.437,0,0,1,697.854,695.086Z" transform="translate(173.406 -145.24)" fill="#17a4ea"/>
  <path id="Path_8" data-name="Path 8" d="M68.137,460.2,64,453.308l38.614-33.1h99.294v9.653l-35.856,38.615-41.373,8.274Z" transform="translate(0 40.678)" fill="#175e81"/>
  <path id="Path_9" data-name="Path 9" d="M219,439.633V418.056H206v6.8l-4.092-4.65-33.1,33.1-5.517,5.516-6.9,27.582,12.412,30.339h63.437V454.687Z" transform="translate(0 40.678)" fill="#ccc"/>
  <rect id="Rectangle_2" data-name="Rectangle 2" width="104.81" height="63.438" transform="translate(64 493.987)" fill="#f2f2f2"/>
  <rect id="Rectangle_3" data-name="Rectangle 3" width="22.065" height="19.307" transform="translate(132.264 513.983)" fill="#175e81"/>
  <rect id="Rectangle_4" data-name="Rectangle 4" width="19.307" height="44.13" transform="translate(103.993 513.294)" fill="#ccc"/>
  <path id="Path_10" data-name="Path 10" d="M81.928,479.51v-6.9H73.654v6.9h8.274Z" transform="translate(0 40.678)" fill="#175e81"/>
  <path id="Path_11" data-name="Path 11" d="M81.238,485.026H73.654v6.9h8.274v-6.9Z" transform="translate(0 40.678)" fill="#175e81"/>
  <rect id="Rectangle_5" data-name="Rectangle 5" width="8.274" height="6.895" transform="translate(87.444 513.294)" fill="#175e81"/>
  <rect id="Rectangle_6" data-name="Rectangle 6" width="8.274" height="6.895" transform="translate(87.444 525.705)" fill="#175e81"/>
  <path id="Path_12" data-name="Path 12" d="M198.46,480.2v-6.9h-8.275v6.9h8.275Z" transform="translate(0 40.678)" fill="#175e81"/>
  <path id="Path_13" data-name="Path 13" d="M197.77,485.716h-7.585v6.895h8.275v-6.895Z" transform="translate(0 40.678)" fill="#175e81"/>
  <rect id="Rectangle_7" data-name="Rectangle 7" width="8.274" height="6.895" transform="translate(203.976 513.983)" fill="#175e81"/>
  <rect id="Rectangle_8" data-name="Rectangle 8" width="8.274" height="6.895" transform="translate(203.976 526.395)" fill="#175e81"/>
  <path id="Path_14" data-name="Path 14" d="M467.137,460.2,463,453.308l38.614-33.1h99.294v9.653l-35.856,38.615-41.373,8.274Z" transform="translate(0 40.678)" fill="#175e81"/>
  <path id="Path_15" data-name="Path 15" d="M618,439.633V418.056H605v6.8l-4.092-4.65-33.1,33.1-5.517,5.516-6.9,27.582,12.412,30.339h63.437V454.687Z" transform="translate(0 40.678)" fill="#ccc"/>
  <rect id="Rectangle_9" data-name="Rectangle 9" width="104.81" height="63.438" transform="translate(463 493.987)" fill="#f2f2f2"/>
  <rect id="Rectangle_10" data-name="Rectangle 10" width="22.065" height="19.307" transform="translate(531.264 513.983)" fill="#175e81"/>
  <rect id="Rectangle_11" data-name="Rectangle 11" width="19.307" height="44.13" transform="translate(502.993 513.294)" fill="#ccc"/>
  <path id="Path_16" data-name="Path 16" d="M480.928,479.51v-6.9h-8.274v6.9h8.274Z" transform="translate(0 40.678)" fill="#175e81"/>
  <path id="Path_17" data-name="Path 17" d="M480.238,485.026h-7.584v6.9h8.274v-6.9Z" transform="translate(0 40.678)" fill="#175e81"/>
  <rect id="Rectangle_12" data-name="Rectangle 12" width="8.274" height="6.895" transform="translate(486.444 513.294)" fill="#175e81"/>
  <rect id="Rectangle_13" data-name="Rectangle 13" width="8.274" height="6.895" transform="translate(486.444 525.705)" fill="#175e81"/>
  <path id="Path_18" data-name="Path 18" d="M597.46,480.2v-6.9h-8.275v6.9h8.275Z" transform="translate(0 40.678)" fill="#175e81"/>
  <path id="Path_19" data-name="Path 19" d="M596.77,485.716h-7.585v6.895h8.275v-6.895Z" transform="translate(0 40.678)" fill="#175e81"/>
  <rect id="Rectangle_14" data-name="Rectangle 14" width="8.274" height="6.895" transform="translate(602.976 513.983)" fill="#175e81"/>
  <rect id="Rectangle_15" data-name="Rectangle 15" width="8.274" height="6.895" transform="translate(602.976 526.395)" fill="#175e81"/>
  <path id="Path_20" data-name="Path 20" d="M280.515,344.361l-6.9-5.517,38.614-34.477h97.914v30.34l-63.437,42.752Z" transform="translate(0 40.561)" fill="#175e81"/>
  <path id="Path_21" data-name="Path 21" d="M428,323.707V305.056H415v4.568l-4.852-5.257-31.719,34.477-12.411,8.275-19.245,140.6L375.8,516.745h67.45V340.223Z" transform="translate(0 40.678)" fill="#ccc"/>
  <rect id="Rectangle_16" data-name="Rectangle 16" width="104.81" height="177.901" transform="translate(273.62 379.523)" fill="#f2f2f2"/>
  <rect id="Rectangle_17" data-name="Rectangle 17" width="19.307" height="43.441" transform="translate(314.302 513.983)" fill="#ccc"/>
  <path id="Path_22" data-name="Path 22" d="M293.616,485.716v-6.895h-8.274v6.895h8.274Z" transform="translate(0 40.678)" fill="#175e81"/>
  <path id="Path_23" data-name="Path 23" d="M292.927,491.232h-7.585v6.9h8.274v-6.9Z" transform="translate(0 40.678)" fill="#175e81"/>
  <rect id="Rectangle_18" data-name="Rectangle 18" width="8.274" height="6.895" transform="translate(299.132 519.5)" fill="#175e81"/>
  <rect id="Rectangle_19" data-name="Rectangle 19" width="8.274" height="6.895" transform="translate(299.132 531.911)" fill="#175e81"/>
  <path id="Path_24" data-name="Path 24" d="M350.158,485.716v-6.895h-8.274v6.895h8.274Z" transform="translate(0 40.678)" fill="#175e81"/>
  <path id="Path_25" data-name="Path 25" d="M349.469,491.232h-7.585v6.9h8.274v-6.9Z" transform="translate(0 40.678)" fill="#175e81"/>
  <rect id="Rectangle_20" data-name="Rectangle 20" width="8.274" height="6.895" transform="translate(355.675 519.5)" fill="#175e81"/>
  <rect id="Rectangle_21" data-name="Rectangle 21" width="8.274" height="6.895" transform="translate(355.675 531.911)" fill="#175e81"/>
  <path id="Path_26" data-name="Path 26" d="M408.079,347.808v-6.9H399.8v6.9h8.274Z" transform="translate(0 40.678)" fill="#175e81"/>
  <path id="Path_27" data-name="Path 27" d="M407.39,353.325H399.8v6.895h8.274v-6.895Z" transform="translate(0 40.678)" fill="#175e81"/>
  <rect id="Rectangle_22" data-name="Rectangle 22" width="8.274" height="6.895" transform="translate(413.596 381.592)" fill="#175e81"/>
  <rect id="Rectangle_23" data-name="Rectangle 23" width="8.274" height="6.895" transform="translate(413.596 394.004)" fill="#175e81"/>
  <path id="Path_28" data-name="Path 28" d="M408.079,386.423v-6.9H399.8v6.9h8.274Z" transform="translate(0 40.678)" fill="#175e81"/>
  <path id="Path_29" data-name="Path 29" d="M407.39,391.939H399.8v6.9h8.274v-6.9Z" transform="translate(0 40.678)" fill="#175e81"/>
  <rect id="Rectangle_24" data-name="Rectangle 24" width="8.274" height="6.895" transform="translate(413.596 420.206)" fill="#175e81"/>
  <rect id="Rectangle_25" data-name="Rectangle 25" width="8.274" height="6.895" transform="translate(413.596 432.617)" fill="#175e81"/>
  <path id="Path_30" data-name="Path 30" d="M408.079,425.037v-6.9H399.8v6.9h8.274Z" transform="translate(0 40.678)" fill="#175e81"/>
  <path id="Path_31" data-name="Path 31" d="M407.39,430.553H399.8v6.895h8.274v-6.895Z" transform="translate(0 40.678)" fill="#175e81"/>
  <rect id="Rectangle_26" data-name="Rectangle 26" width="8.274" height="6.895" transform="translate(413.596 458.82)" fill="#175e81"/>
  <rect id="Rectangle_27" data-name="Rectangle 27" width="8.274" height="6.895" transform="translate(413.596 471.232)" fill="#175e81"/>
  <path id="Path_32" data-name="Path 32" d="M408.079,463.651v-6.9H399.8v6.9h8.274Z" transform="translate(0 40.678)" fill="#175e81"/>
  <path id="Path_33" data-name="Path 33" d="M407.39,469.167H399.8v6.9h8.274v-6.9Z" transform="translate(0 40.678)" fill="#175e81"/>
  <rect id="Rectangle_28" data-name="Rectangle 28" width="8.274" height="6.895" transform="translate(413.596 497.434)" fill="#175e81"/>
  <rect id="Rectangle_29" data-name="Rectangle 29" width="8.274" height="6.895" transform="translate(413.596 509.845)" fill="#175e81"/>
  <rect id="Rectangle_30" data-name="Rectangle 30" width="79.986" height="16.549" transform="translate(285.342 388.487)" fill="#175e81"/>
  <rect id="Rectangle_31" data-name="Rectangle 31" width="79.986" height="16.549" transform="translate(285.342 421.585)" fill="#175e81"/>
  <rect id="Rectangle_32" data-name="Rectangle 32" width="79.986" height="16.549" transform="translate(285.342 454.683)" fill="#175e81"/>
  <rect id="Rectangle_33" data-name="Rectangle 33" width="79.986" height="16.549" transform="translate(285.342 487.781)" fill="#175e81"/>
  <path id="Path_34" data-name="Path 34" d="M683.515,344.361l-6.9-5.517,38.614-34.477h97.914v30.34l-63.437,42.752Z" transform="translate(0 40.561)" fill="#175e81"/>
  <path id="Path_35" data-name="Path 35" d="M831,323.707V305.056H818v4.568l-4.852-5.257-31.719,34.477-12.411,8.275-19.245,140.6L778.8,516.745h67.45V340.223Z" transform="translate(0 40.678)" fill="#ccc"/>
  <rect id="Rectangle_34" data-name="Rectangle 34" width="104.81" height="177.901" transform="translate(676.62 379.523)" fill="#f2f2f2"/>
  <rect id="Rectangle_35" data-name="Rectangle 35" width="19.307" height="43.441" transform="translate(717.302 513.983)" fill="#ccc"/>
  <path id="Path_36" data-name="Path 36" d="M696.616,485.716v-6.895h-8.274v6.895h8.274Z" transform="translate(0 40.678)" fill="#175e81"/>
  <path id="Path_37" data-name="Path 37" d="M695.927,491.232h-7.585v6.9h8.274v-6.9Z" transform="translate(0 40.678)" fill="#175e81"/>
  <rect id="Rectangle_36" data-name="Rectangle 36" width="8.274" height="6.895" transform="translate(702.132 519.5)" fill="#175e81"/>
  <rect id="Rectangle_37" data-name="Rectangle 37" width="8.274" height="6.895" transform="translate(702.132 531.911)" fill="#175e81"/>
  <path id="Path_38" data-name="Path 38" d="M753.158,485.716v-6.895h-8.274v6.895h8.274Z" transform="translate(0 40.678)" fill="#175e81"/>
  <path id="Path_39" data-name="Path 39" d="M752.469,491.232h-7.585v6.9h8.274v-6.9Z" transform="translate(0 40.678)" fill="#175e81"/>
  <rect id="Rectangle_38" data-name="Rectangle 38" width="8.274" height="6.895" transform="translate(758.675 519.5)" fill="#175e81"/>
  <rect id="Rectangle_39" data-name="Rectangle 39" width="8.274" height="6.895" transform="translate(758.675 531.911)" fill="#175e81"/>
  <path id="Path_40" data-name="Path 40" d="M811.079,347.808v-6.9H802.8v6.9h8.274Z" transform="translate(0 40.678)" fill="#175e81"/>
  <path id="Path_41" data-name="Path 41" d="M810.39,353.325H802.8v6.895h8.274v-6.895Z" transform="translate(0 40.678)" fill="#175e81"/>
  <rect id="Rectangle_40" data-name="Rectangle 40" width="8.274" height="6.895" transform="translate(816.596 381.592)" fill="#175e81"/>
  <rect id="Rectangle_41" data-name="Rectangle 41" width="8.274" height="6.895" transform="translate(816.596 394.004)" fill="#175e81"/>
  <path id="Path_42" data-name="Path 42" d="M811.079,386.423v-6.9H802.8v6.9h8.274Z" transform="translate(0 40.678)" fill="#175e81"/>
  <path id="Path_43" data-name="Path 43" d="M810.39,391.939H802.8v6.9h8.274v-6.9Z" transform="translate(0 40.678)" fill="#175e81"/>
  <rect id="Rectangle_42" data-name="Rectangle 42" width="8.274" height="6.895" transform="translate(816.596 420.206)" fill="#175e81"/>
  <rect id="Rectangle_43" data-name="Rectangle 43" width="8.274" height="6.895" transform="translate(816.596 432.617)" fill="#175e81"/>
  <path id="Path_44" data-name="Path 44" d="M811.079,425.037v-6.9H802.8v6.9h8.274Z" transform="translate(0 40.678)" fill="#175e81"/>
  <path id="Path_45" data-name="Path 45" d="M810.39,430.553H802.8v6.895h8.274v-6.895Z" transform="translate(0 40.678)" fill="#175e81"/>
  <rect id="Rectangle_44" data-name="Rectangle 44" width="8.274" height="6.895" transform="translate(816.596 458.82)" fill="#175e81"/>
  <rect id="Rectangle_45" data-name="Rectangle 45" width="8.274" height="6.895" transform="translate(816.596 471.232)" fill="#175e81"/>
  <path id="Path_46" data-name="Path 46" d="M811.079,463.651v-6.9H802.8v6.9h8.274Z" transform="translate(0 40.678)" fill="#175e81"/>
  <path id="Path_47" data-name="Path 47" d="M810.39,469.167H802.8v6.9h8.274v-6.9Z" transform="translate(0 40.678)" fill="#175e81"/>
  <rect id="Rectangle_46" data-name="Rectangle 46" width="8.274" height="6.895" transform="translate(816.596 497.434)" fill="#175e81"/>
  <rect id="Rectangle_47" data-name="Rectangle 47" width="8.274" height="6.895" transform="translate(816.596 509.845)" fill="#175e81"/>
  <rect id="Rectangle_48" data-name="Rectangle 48" width="79.986" height="16.549" transform="translate(688.342 388.487)" fill="#175e81"/>
  <rect id="Rectangle_49" data-name="Rectangle 49" width="79.986" height="16.549" transform="translate(688.342 421.585)" fill="#175e81"/>
  <rect id="Rectangle_50" data-name="Rectangle 50" width="79.986" height="16.549" transform="translate(688.342 454.683)" fill="#175e81"/>
  <rect id="Rectangle_51" data-name="Rectangle 51" width="79.986" height="16.549" transform="translate(688.342 487.781)" fill="#175e81"/>
  <path id="Path_48" data-name="Path 48" d="M904.515,344.361l-6.9-5.517,38.614-34.477h97.916v30.34l-63.439,42.752Z" transform="translate(0 40.561)" fill="#175e81"/>
  <path id="Path_49" data-name="Path 49" d="M1052,323.707V305.056h-13v4.568l-4.85-5.257-31.72,34.477-12.412,8.275-19.245,140.6L999.8,516.745h67.454V340.223Z" transform="translate(0 40.678)" fill="#ccc"/>
  <rect id="Rectangle_52" data-name="Rectangle 52" width="104.81" height="177.901" transform="translate(897.62 379.523)" fill="#f2f2f2"/>
  <rect id="Rectangle_53" data-name="Rectangle 53" width="19.307" height="43.441" transform="translate(938.302 513.983)" fill="#ccc"/>
  <path id="Path_50" data-name="Path 50" d="M917.616,485.716v-6.895h-8.274v6.895h8.274Z" transform="translate(0 40.678)" fill="#175e81"/>
  <path id="Path_51" data-name="Path 51" d="M916.927,491.232h-7.585v6.9h8.274v-6.9Z" transform="translate(0 40.678)" fill="#175e81"/>
  <rect id="Rectangle_54" data-name="Rectangle 54" width="8.274" height="6.895" transform="translate(923.132 519.5)" fill="#175e81"/>
  <rect id="Rectangle_55" data-name="Rectangle 55" width="8.274" height="6.895" transform="translate(923.132 531.911)" fill="#175e81"/>
  <path id="Path_52" data-name="Path 52" d="M974.158,485.716v-6.895h-8.274v6.895h8.274Z" transform="translate(0 40.678)" fill="#175e81"/>
  <path id="Path_53" data-name="Path 53" d="M973.469,491.232h-7.585v6.9h8.274v-6.9Z" transform="translate(0 40.678)" fill="#175e81"/>
  <rect id="Rectangle_56" data-name="Rectangle 56" width="8.274" height="6.895" transform="translate(979.675 519.5)" fill="#175e81"/>
  <rect id="Rectangle_57" data-name="Rectangle 57" width="8.274" height="6.895" transform="translate(979.675 531.911)" fill="#175e81"/>
  <path id="Path_54" data-name="Path 54" d="M1032.08,347.808v-6.9h-8.28v6.9h8.28Z" transform="translate(0 40.678)" fill="#175e81"/>
  <path id="Path_55" data-name="Path 55" d="M1031.39,353.325h-7.59v6.895h8.28v-6.895Z" transform="translate(0 40.678)" fill="#175e81"/>
  <rect id="Rectangle_58" data-name="Rectangle 58" width="8.274" height="6.895" transform="translate(1037.6 381.592)" fill="#175e81"/>
  <rect id="Rectangle_59" data-name="Rectangle 59" width="8.274" height="6.895" transform="translate(1037.6 394.004)" fill="#175e81"/>
  <path id="Path_56" data-name="Path 56" d="M1032.08,386.423v-6.9h-8.28v6.9h8.28Z" transform="translate(0 40.678)" fill="#175e81"/>
  <path id="Path_57" data-name="Path 57" d="M1031.39,391.939h-7.59v6.9h8.28v-6.9Z" transform="translate(0 40.678)" fill="#175e81"/>
  <rect id="Rectangle_60" data-name="Rectangle 60" width="8.274" height="6.895" transform="translate(1037.6 420.206)" fill="#175e81"/>
  <rect id="Rectangle_61" data-name="Rectangle 61" width="8.274" height="6.895" transform="translate(1037.6 432.617)" fill="#175e81"/>
  <path id="Path_58" data-name="Path 58" d="M1032.08,425.037v-6.9h-8.28v6.9h8.28Z" transform="translate(0 40.678)" fill="#175e81"/>
  <path id="Path_59" data-name="Path 59" d="M1031.39,430.553h-7.59v6.895h8.28v-6.895Z" transform="translate(0 40.678)" fill="#175e81"/>
  <rect id="Rectangle_62" data-name="Rectangle 62" width="8.274" height="6.895" transform="translate(1037.6 458.82)" fill="#175e81"/>
  <rect id="Rectangle_63" data-name="Rectangle 63" width="8.274" height="6.895" transform="translate(1037.6 471.232)" fill="#175e81"/>
  <path id="Path_60" data-name="Path 60" d="M1032.08,463.651v-6.9h-8.28v6.9h8.28Z" transform="translate(0 40.678)" fill="#175e81"/>
  <path id="Path_61" data-name="Path 61" d="M1031.39,469.167h-7.59v6.9h8.28v-6.9Z" transform="translate(0 40.678)" fill="#175e81"/>
  <rect id="Rectangle_64" data-name="Rectangle 64" width="8.274" height="6.895" transform="translate(1037.6 497.434)" fill="#175e81"/>
  <rect id="Rectangle_65" data-name="Rectangle 65" width="8.274" height="6.895" transform="translate(1037.6 509.845)" fill="#175e81"/>
  <rect id="Rectangle_66" data-name="Rectangle 66" width="79.986" height="16.549" transform="translate(909.342 388.487)" fill="#175e81"/>
  <rect id="Rectangle_67" data-name="Rectangle 67" width="79.986" height="16.549" transform="translate(909.342 421.585)" fill="#175e81"/>
  <rect id="Rectangle_68" data-name="Rectangle 68" width="79.986" height="16.549" transform="translate(909.342 454.683)" fill="#175e81"/>
  <rect id="Rectangle_69" data-name="Rectangle 69" width="79.986" height="16.549" transform="translate(909.342 487.781)" fill="#175e81"/>
  <rect id="Rectangle_70" data-name="Rectangle 70" width="1137" height="2" transform="translate(0 556.736)" fill="#175e81"/>
  <rect id="Rectangle_71" data-name="Rectangle 71" width="2" height="79" transform="translate(252 477.736)" fill="#175e81"/>
  <path id="Path_62" data-name="Path 62" d="M303.958,638.1c.127,27.624-19.308,50.108-19.308,50.108s-19.642-22.3-19.769-49.928,19.308-50.108,19.308-50.108S303.83,610.472,303.958,638.1Z" transform="translate(-31.5 -150.293)" fill="#17a4ea"/>
  <rect id="Rectangle_72" data-name="Rectangle 72" width="2" height="79" transform="translate(452 477.736)" fill="#175e81"/>
  <rect id="Rectangle_89" data-name="Rectangle 89" width="1" height="75" transform="translate(894 482.736)" fill="#175e81"/>
  <path id="Path_63" data-name="Path 63" d="M503.958,638.1c.127,27.624-19.308,50.108-19.308,50.108s-19.642-22.3-19.769-49.928,19.308-50.108,19.308-50.108S503.83,610.472,503.958,638.1Z" transform="translate(-31.5 -150.293)" fill="#17a4ea"/>
  <path id="Path_181" data-name="Path 181" d="M491.129,621.7c.086,18.555-12.969,33.658-12.969,33.658s-13.193-14.982-13.279-33.537,12.969-33.658,12.969-33.658S491.043,603.15,491.129,621.7Z" transform="translate(416.5 -112.452)" fill="#17a4ea"/>
  <rect id="Rectangle_73" data-name="Rectangle 73" width="2" height="79" transform="translate(851 477.736)" fill="#175e81"/>
  <path id="Path_64" data-name="Path 64" d="M902.958,638.1c.127,27.624-19.308,50.108-19.308,50.108s-19.642-22.3-19.769-49.928,19.308-50.108,19.308-50.108S902.83,610.472,902.958,638.1Z" transform="translate(-31.5 -150.293)" fill="#17a4ea"/>
  <ellipse id="Ellipse_6" data-name="Ellipse 6" cx="38" cy="8.55" rx="38" ry="8.55" transform="translate(549.5 195.358)" fill="#17a4ea"/>
  <circle id="Ellipse_25" data-name="Ellipse 25" cx="2.92" cy="2.92" r="2.92" transform="translate(304.27 222.17)" fill="#17a4ea" opacity="0.4"/>
  <circle id="Ellipse_26" data-name="Ellipse 26" cx="7.92" cy="7.92" r="7.92" transform="translate(360.27 212.167)" fill="#17a4ea" opacity="0.4"/>
  <line id="Line_1" data-name="Line 1" x2="4" y2="15" transform="translate(179.5 499.179)" fill="none"/>
  <path id="Path_67" data-name="Path 67" d="M0,0" transform="translate(179.5 498.679) rotate(8)" fill="none" stroke="#707070" stroke-width="1"/>
  <path id="Path_68" data-name="Path 68" d="M0,9" transform="translate(162.5 529.179)" fill="none" stroke="#228fc5" stroke-width="1"/>
  <path id="Path_105" data-name="Path 105" d="M3.877,25.83l-1.32-6.6,9.1-2.194L6.172,18.376l-.2-4.225L4.2,15.755l4.266-5.261L6.172,8.87V3.276l.975,2.445L2.557,3.276,6.172.521,0,0" transform="translate(581.5 477.179)" fill="none" stroke="#175e81" stroke-width="1"/>
  <path id="Path_120" data-name="Path 120" d="M10,0" transform="translate(403.5 420.179)" fill="none" stroke="#175e81" stroke-width="1"/>
  <path id="Path_72" data-name="Path 72" d="M2.642-3.975V1.876" transform="translate(937.5 508.179)" fill="none"/>
  <line id="Line_17" data-name="Line 17" x2="3" y2="4" transform="translate(809.5 501.179)" fill="none" stroke="#175e81" stroke-width="1"/>
  <line id="Line_18" data-name="Line 18" x1="2" y2="9" transform="translate(813.5 503.179)" fill="none" stroke="#175e81" stroke-width="1"/>
  <line id="Line_19" data-name="Line 19" x2="3" transform="translate(812.5 505.179)" fill="none" stroke="#175e81" stroke-width="1"/>
  <line id="Line_20" data-name="Line 20" x2="3" y2="10" transform="translate(812.5 505.179)" fill="none" stroke="#175e81" stroke-width="1"/>
  <line id="Line_21" data-name="Line 21" x1="4" y2="3" transform="translate(814.5 509.179)" fill="none" stroke="#175e81" stroke-width="1"/>
  <line id="Line_22" data-name="Line 22" x2="3" y2="7" transform="translate(817.5 512.179)" fill="none" stroke="#175e81" stroke-width="1"/>
  <line id="Line_23" data-name="Line 23" x1="11" y2="6" transform="translate(813.5 512.179)" fill="none" stroke="#175e81" stroke-width="1"/>
  <circle id="Ellipse_27" data-name="Ellipse 27" cx="5.42" cy="5.42" r="5.42" transform="translate(319.27 158.123)" fill="#17a4ea" opacity="0.4"/>
  <circle id="Ellipse_28" data-name="Ellipse 28" cx="10.92" cy="10.92" r="10.92" transform="translate(439.27 79.065)" fill="#17a4ea" opacity="0.4"/>
  <circle id="Ellipse_29" data-name="Ellipse 29" cx="10.42" cy="10.42" r="10.42" transform="translate(474.27 150.121)" fill="#17a4ea" opacity="0.4"/>
  <circle id="Ellipse_30" data-name="Ellipse 30" cx="10.92" cy="10.92" r="10.92" transform="translate(727 150.115)" fill="#17a4ea" opacity="0.4"/>
  <circle id="Ellipse_31" data-name="Ellipse 31" cx="6.92" cy="6.92" r="6.92" transform="translate(647.27 258.201)" fill="#17a4ea" opacity="0.4"/>
  <circle id="Ellipse_32" data-name="Ellipse 32" cx="8.42" cy="8.42" r="8.42" transform="translate(616.27 418.424)" fill="#17a4ea" opacity="0.4"/>
  <circle id="Ellipse_33" data-name="Ellipse 33" cx="8.42" cy="8.42" r="8.42" transform="translate(976.27 62.05)" fill="#17a4ea" opacity="0.4"/>
  <circle id="Ellipse_34" data-name="Ellipse 34" cx="8.42" cy="8.42" r="8.42" transform="translate(122.27 125.099)" fill="#17a4ea" opacity="0.4"/>
  <circle id="Ellipse_70" data-name="Ellipse 70" cx="8.42" cy="8.42" r="8.42" transform="translate(118.27 355.279)" fill="#17a4ea" opacity="0.07"/>
  <circle id="Ellipse_35" data-name="Ellipse 35" cx="21.92" cy="21.92" r="21.92" transform="translate(776.27 164.142)" fill="#17a4ea" opacity="0.4"/>
  <circle id="Ellipse_38" data-name="Ellipse 38" cx="4.42" cy="4.42" r="4.42" transform="translate(239.27 64.049)" fill="#17a4ea" opacity="0.4"/>
  <circle id="Ellipse_39" data-name="Ellipse 39" cx="2.92" cy="2.92" r="2.92" transform="translate(222.27 158.12)" fill="#17a4ea" opacity="0.4"/>
  <circle id="Ellipse_40" data-name="Ellipse 40" cx="5.92" cy="5.92" r="5.92" transform="translate(890.27 59.046)" fill="#17a4ea" opacity="0.4"/>
  <circle id="Ellipse_42" data-name="Ellipse 42" cx="8.42" cy="8.42" r="8.42" transform="translate(621.27 68.055)" fill="#17a4ea" opacity="0.4"/>
  <circle id="Ellipse_43" data-name="Ellipse 43" cx="5.42" cy="5.42" r="5.42" transform="translate(439.27)" fill="#17a4ea" opacity="0.4"/>
  <g id="Group_23" data-name="Group 23" transform="translate(543.304 76.111)">
    <path id="Path_70" data-name="Path 70" d="M312,173.328c2.266-2.579,4.508-5.207,6.69-7.726,8-10.667,16.972-20.983,21.468-33.723C349.791,104.617,337.8,78.041,312,72.967a46.391,46.391,0,0,0-17.864,0c-18.683,3.676-30.122,18.621-31.352,36.953a53.189,53.189,0,0,0,1.495,16.271c.47,1.88,1.037,3.784,1.7,5.689,4.508,12.74,13.476,23.057,21.48,33.723,2.182,2.519,4.424,5.146,6.678,7.726,1.832,2.085,3.689,4.158,5.521,6.123,3.423,3.652,3.411,3.652,6.822,0C308.325,177.486,310.17,175.413,312,173.328Z" transform="translate(-262.675 -72.099)" fill="#17a4ea" fill-rule="evenodd"/>
    <path id="Path_71" data-name="Path 71" d="M298.107,134.9a25.777,25.777,0,1,0,25.771-25.768A25.777,25.777,0,0,0,298.107,134.9Z" transform="translate(-283.483 -93.845)" fill="#f8f2f0" fill-rule="evenodd"/>
    <path id="Path_72-2" data-name="Path 72" d="M350.6,88.962a25.776,25.776,0,0,1,10.342,41.3c.048,1.121.072,2.23.072,3.362a70.469,70.469,0,0,1-19.322,48.56c.844-.012,1.688-.916,3.387-2.736,1.844-1.965,3.689-4.038,5.521-6.123,2.266-2.579,4.508-5.207,6.69-7.726,8-10.667,16.972-20.983,21.468-33.723,9.631-27.263-2.362-53.839-28.158-58.913a46.391,46.391,0,0,0-17.864,0c-1.483.3-2.941.663-4.339,1.1q2.242,1.428,4.339,3.013a71.035,71.035,0,0,1,11.126,10.389,26.046,26.046,0,0,1,6.738,1.494Z" transform="translate(-301.269 -72.1)" fill="#228fc5" fill-rule="evenodd"/>
    <path id="Path_73" data-name="Path 73" d="M372.6,118.54a70.293,70.293,0,0,1,10.342,33.59,25.776,25.776,0,0,0-10.342-41.3,26.061,26.061,0,0,0-6.738-1.494A71.305,71.305,0,0,1,372.6,118.54Z" transform="translate(-323.275 -93.965)" fill="#e0d2ce" fill-rule="evenodd"/>
  </g>
  <path id="Path_106" data-name="Path 106" d="M13.948,23.219l-5.2,1.118-.22,2.388L5.814,24.109l3.679-4.43-6.186,6.55L3.575,20.2l2.33,2.29L.281,14.979,3.307,12.66,0,12.3l3.81-.413L8.057,9.02,3.91,9.392l-.6-4.716L2.022,8.166l6.052-3.49L3.307.744,11.444,0" transform="matrix(-0.839, 0.545, -0.545, -0.839, 222.042, 526.019)" fill="none" stroke="#175e81" stroke-width="1"/>
  <line id="Line_42" data-name="Line 42" x1="6" y2="3" transform="translate(436.5 402.49)" fill="none" stroke="#175e81" stroke-width="1"/>
  <line id="Line_43" data-name="Line 43" x1="2" y1="3" transform="translate(434.5 401.49)" fill="none" stroke="#175e81" stroke-width="1"/>
  <line id="Line_44" data-name="Line 44" x1="8" y2="3" transform="translate(427.5 402.49)" fill="none" stroke="#175e81" stroke-width="1"/>
  <line id="Line_45" data-name="Line 45" x2="2" y2="3" transform="translate(428.5 405.49)" fill="none" stroke="#175e81" stroke-width="1"/>
  <line id="Line_46" data-name="Line 46" x1="7" y2="2" transform="translate(423.5 407.49)" fill="none" stroke="#175e81" stroke-width="1"/>
  <line id="Line_47" data-name="Line 47" x1="8" y1="2" transform="translate(417.5 406.49)" fill="none" stroke="#175e81" stroke-width="1"/>
  <line id="Line_48" data-name="Line 48" x1="5" y2="3" transform="translate(415.5 407.49)" fill="none" stroke="#175e81" stroke-width="1"/>
  <line id="Line_49" data-name="Line 49" x1="5" y2="4" transform="translate(412.5 409.49)" fill="none" stroke="#175e81" stroke-width="1"/>
  <line id="Line_50" data-name="Line 50" x1="6" y1="1" transform="translate(408.5 411.49)" fill="none" stroke="#175e81" stroke-width="1"/>
</svg>
