<svg xmlns="http://www.w3.org/2000/svg" width="1137" height="545.625" viewBox="0 0 1137 545.625">
  <path id="Path_243" data-name="Path 243" d="M175.764,701.583l-1.951-.439c21.756-96.751,76.43-184.609,153.951-247.392A444.114,444.114,0,0,1,1039.92,699.963l-1.949.443C991.916,498.2,814.7,356.972,607,356.972,402.026,356.972,220.666,501.9,175.764,701.583Z" transform="translate(-23.5 -227.404)" fill="#175e81"/>
  <circle id="Ellipse_71" data-name="Ellipse 71" cx="54.315" cy="54.315" r="54.315" transform="translate(903.318 176.943)" fill="#ffcc69"/>
  <g id="Group_45" data-name="Group 45" transform="translate(-392 -307.375)">
    <rect id="Rectangle_1" data-name="Rectangle 1" width="2" height="79" transform="translate(1269 709)" fill="#175e81"/>
    <path id="Path_2" data-name="Path 2" d="M928.958,638.1c.127,27.624-19.308,50.108-19.308,50.108s-19.642-22.3-19.769-49.928,19.308-50.108,19.308-50.108S928.83,610.472,928.958,638.1Z" transform="translate(360.5 80.971)" fill="#17a4ea"/>
    <path id="Path_3" data-name="Path 3" d="M928.958,638.1c.127,27.624-19.308,50.108-19.308,50.108s-19.642-22.3-19.769-49.928,19.308-50.108,19.308-50.108S928.83,610.472,928.958,638.1Z" transform="translate(360.5 80.971)" opacity="0.1"/>
  </g>
  <circle id="Ellipse_72" data-name="Ellipse 72" cx="31.248" cy="31.248" r="31.248" transform="translate(469.774 181.866)" fill="#17a4ea" opacity="0.4"/>
  <circle id="Ellipse_73" data-name="Ellipse 73" cx="21.92" cy="21.92" r="21.92" transform="translate(421.27 206.126)" fill="#17a4ea" opacity="0.4"/>
  <circle id="Ellipse_74" data-name="Ellipse 74" cx="21.92" cy="21.92" r="21.92" transform="translate(186.27 269.177)" fill="#17a4ea" opacity="0.4"/>
  <circle id="Ellipse_75" data-name="Ellipse 75" cx="31.248" cy="31.248" r="31.248" transform="translate(835.504 200.292)" fill="#17a4ea" opacity="0.4"/>
  <g id="Group_58" data-name="Group 58" transform="translate(-299.234 -443.857) rotate(7)">
    <path id="Path_34" data-name="Path 34" d="M683.515,344.361l-6.9-5.517,38.614-34.477h97.914v30.34l-63.437,42.752Z" transform="translate(392 271.826)" fill="#175e81"/>
    <path id="Path_35" data-name="Path 35" d="M831,323.707V305.056H818v4.568l-4.852-5.257-31.719,34.477-12.411,8.275-19.245,140.6L778.8,516.745l67.8-9.848-.346-166.674Z" transform="translate(392 271.943)" fill="#ccc"/>
    <path id="Path_282" data-name="Path 282" d="M801.531,512.468,846.91,506.9l-.348-166.674-9.331-9.725Z" transform="translate(391.682 271.943)" opacity="0.28"/>
    <path id="Path_182" data-name="Path 182" d="M0,0H104.81V177.9L-.183,188.682Z" transform="translate(1068.62 610.787)" fill="#f2f2f2"/>
    <rect id="Rectangle_35" data-name="Rectangle 35" width="19.307" height="40.441" transform="translate(1109.911 750.21)" fill="#ccc"/>
    <path id="Path_36" data-name="Path 36" d="M696.616,485.716v-6.895h-8.274v6.895h8.274Z" transform="translate(392 271.943)" fill="#175e81"/>
    <path id="Path_37" data-name="Path 37" d="M695.927,491.232h-7.585v6.9h8.274v-6.9Z" transform="translate(392 271.943)" fill="#175e81"/>
    <rect id="Rectangle_36" data-name="Rectangle 36" width="8.274" height="6.895" transform="translate(1094.132 750.764)" fill="#175e81"/>
    <rect id="Rectangle_37" data-name="Rectangle 37" width="8.274" height="6.895" transform="translate(1094.132 763.175)" fill="#175e81"/>
    <path id="Path_38" data-name="Path 38" d="M753.158,485.716v-6.895h-8.274v6.895h8.274Z" transform="translate(392 271.943)" fill="#175e81"/>
    <path id="Path_39" data-name="Path 39" d="M752.469,491.232h-7.585v6.9h8.274v-6.9Z" transform="translate(392 271.943)" fill="#175e81"/>
    <rect id="Rectangle_38" data-name="Rectangle 38" width="8.274" height="6.895" transform="translate(1150.675 750.764)" fill="#175e81"/>
    <rect id="Rectangle_39" data-name="Rectangle 39" width="8.274" height="6.895" transform="translate(1150.675 763.175)" fill="#175e81"/>
    <path id="Path_40" data-name="Path 40" d="M811.079,347.808v-6.9H802.8v6.9h8.274Z" transform="translate(392 271.943)" fill="#175e81"/>
    <path id="Path_41" data-name="Path 41" d="M810.39,353.325H802.8v6.895h8.274v-6.895Z" transform="translate(392 271.943)" fill="#175e81"/>
    <rect id="Rectangle_40" data-name="Rectangle 40" width="8.274" height="6.895" transform="translate(1208.596 612.856)" fill="#175e81"/>
    <rect id="Rectangle_41" data-name="Rectangle 41" width="8.274" height="6.895" transform="translate(1208.596 625.268)" fill="#175e81"/>
    <path id="Path_42" data-name="Path 42" d="M811.079,386.423v-6.9H802.8v6.9h8.274Z" transform="translate(392 271.943)" fill="#175e81"/>
    <path id="Path_43" data-name="Path 43" d="M810.39,391.939H802.8v6.9h8.274v-6.9Z" transform="translate(392 271.943)" fill="#175e81"/>
    <rect id="Rectangle_42" data-name="Rectangle 42" width="8.274" height="6.895" transform="translate(1208.596 651.47)" fill="#175e81"/>
    <rect id="Rectangle_43" data-name="Rectangle 43" width="8.274" height="6.895" transform="translate(1208.596 663.882)" fill="#175e81"/>
    <path id="Path_44" data-name="Path 44" d="M811.079,425.037v-6.9H802.8v6.9h8.274Z" transform="translate(392 271.943)" fill="#175e81"/>
    <rect id="Rectangle_44" data-name="Rectangle 44" width="8.274" height="6.895" transform="translate(1208.596 690.084)" fill="#175e81"/>
    <rect id="Rectangle_45" data-name="Rectangle 45" width="8.274" height="6.895" transform="translate(1208.596 702.496)" fill="#175e81"/>
    <path id="Path_46" data-name="Path 46" d="M811.079,463.651v-6.9H802.8v6.9h8.274Z" transform="translate(392 271.943)" fill="#175e81"/>
    <path id="Path_47" data-name="Path 47" d="M810.39,469.167H802.8v6.9h8.274v-6.9Z" transform="translate(392 271.943)" fill="#175e81"/>
    <rect id="Rectangle_46" data-name="Rectangle 46" width="8.274" height="6.895" transform="translate(1208.596 728.698)" fill="#175e81"/>
    <rect id="Rectangle_47" data-name="Rectangle 47" width="8.274" height="6.895" transform="translate(1208.596 741.11)" fill="#175e81"/>
    <rect id="Rectangle_48" data-name="Rectangle 48" width="79.986" height="16.549" transform="translate(1080.342 619.751)" fill="#175e81"/>
    <rect id="Rectangle_49" data-name="Rectangle 49" width="79.986" height="16.549" transform="translate(1080.342 652.849)" fill="#175e81"/>
    <rect id="Rectangle_50" data-name="Rectangle 50" width="79.986" height="16.549" transform="translate(1080.342 685.947)" fill="#175e81"/>
    <rect id="Rectangle_51" data-name="Rectangle 51" width="79.986" height="16.549" transform="translate(1080.342 719.045)" fill="#175e81"/>
    <path id="Path_45" data-name="Path 45" d="M810.39,430.553H802.8v6.895h8.274v-6.895Z" transform="translate(392 271.943)" fill="#175e81"/>
  </g>
  <path id="Path_244" data-name="Path 244" d="M88.131,698.244c1.694,6.262,7.5,10.14,7.5,10.14s3.056-6.274,1.362-12.536-7.5-10.14-7.5-10.14S86.437,691.982,88.131,698.244Z" transform="translate(-31.5 -226.404)" fill="#175e81"/>
  <path id="Path_245" data-name="Path 245" d="M90.62,696.9c4.648,4.525,5.216,11.481,5.216,11.481s-6.968-.38-11.617-4.905S79,691.993,79,691.993,85.971,692.374,90.62,696.9Z" transform="translate(-31.5 -226.404)" fill="#17a4ea"/>
  <g id="Group_47" data-name="Group 47" transform="translate(-392 -307.375)">
    <path id="Path_180" data-name="Path 180" d="M700.014,696.864a17.693,17.693,0,0,0,5.787,9.024s2.359-5.584,1.051-11.156a17.693,17.693,0,0,0-5.787-9.024S698.707,691.291,700.014,696.864Z" transform="translate(561.753 83.468)" fill="#175e81"/>
    <path id="Path_179" data-name="Path 179" d="M697.854,695.086a13.171,13.171,0,0,1,3.076,7.239,11.432,11.432,0,0,1-6.851-3.093A13.172,13.172,0,0,1,691,691.993,11.437,11.437,0,0,1,697.854,695.086Z" transform="translate(565.406 86.025)" fill="#17a4ea"/>
  </g>
  <rect id="Rectangle_95" data-name="Rectangle 95" width="1137" height="2" transform="translate(0 480.625)" fill="#175e81"/>
  <g id="Group_50" data-name="Group 50" transform="translate(-392 -308.375)">
    <path id="Path_48" data-name="Path 48" d="M904.515,344.361l-6.9-5.517,38.614-34.477h97.916v30.34l-63.439,42.752Z" transform="translate(392 271.826)" fill="#175e81"/>
    <path id="Path_49" data-name="Path 49" d="M1052,323.707V305.056h-13v4.568l-4.85-5.257-31.72,34.477-12.412,8.275-19.245,140.6L999.8,516.745h67.454V340.223Z" transform="translate(392 271.943)" fill="#ccc"/>
    <rect id="Rectangle_52" data-name="Rectangle 52" width="104.81" height="177.901" transform="translate(1289.62 610.787)" fill="#f2f2f2"/>
    <rect id="Rectangle_53" data-name="Rectangle 53" width="19.307" height="43.441" transform="translate(1330.302 745.247)" fill="#ccc"/>
    <path id="Path_50" data-name="Path 50" d="M917.616,485.716v-6.895h-8.274v6.895h8.274Z" transform="translate(392 271.943)" fill="#175e81"/>
    <path id="Path_51" data-name="Path 51" d="M916.927,491.232h-7.585v6.9h8.274v-6.9Z" transform="translate(392 271.943)" fill="#175e81"/>
    <rect id="Rectangle_54" data-name="Rectangle 54" width="8.274" height="6.895" transform="translate(1315.132 750.764)" fill="#175e81"/>
    <rect id="Rectangle_55" data-name="Rectangle 55" width="8.274" height="6.895" transform="translate(1315.132 763.175)" fill="#175e81"/>
    <path id="Path_52" data-name="Path 52" d="M974.158,485.716v-6.895h-8.274v6.895h8.274Z" transform="translate(392 271.943)" fill="#175e81"/>
    <path id="Path_53" data-name="Path 53" d="M973.469,491.232h-7.585v6.9h8.274v-6.9Z" transform="translate(392 271.943)" fill="#175e81"/>
    <rect id="Rectangle_56" data-name="Rectangle 56" width="8.274" height="6.895" transform="translate(1371.675 750.764)" fill="#175e81"/>
    <rect id="Rectangle_57" data-name="Rectangle 57" width="8.274" height="6.895" transform="translate(1371.675 763.175)" fill="#175e81"/>
    <path id="Path_54" data-name="Path 54" d="M1032.08,347.808v-6.9h-8.28v6.9h8.28Z" transform="translate(392 271.943)" fill="#175e81"/>
    <path id="Path_55" data-name="Path 55" d="M1031.39,353.325h-7.59v6.895h8.28v-6.895Z" transform="translate(392 271.943)" fill="#175e81"/>
    <rect id="Rectangle_58" data-name="Rectangle 58" width="8.274" height="6.895" transform="translate(1429.6 612.856)" fill="#175e81"/>
    <rect id="Rectangle_59" data-name="Rectangle 59" width="8.274" height="6.895" transform="translate(1429.6 625.268)" fill="#175e81"/>
    <path id="Path_56" data-name="Path 56" d="M1032.08,386.423v-6.9h-8.28v6.9h8.28Z" transform="translate(392 271.943)" fill="#175e81"/>
    <path id="Path_57" data-name="Path 57" d="M1031.39,391.939h-7.59v6.9h8.28v-6.9Z" transform="translate(392 271.943)" fill="#175e81"/>
    <rect id="Rectangle_60" data-name="Rectangle 60" width="8.274" height="6.895" transform="translate(1429.6 651.47)" fill="#175e81"/>
    <rect id="Rectangle_61" data-name="Rectangle 61" width="8.274" height="6.895" transform="translate(1429.6 663.882)" fill="#175e81"/>
    <path id="Path_58" data-name="Path 58" d="M1032.08,425.037v-6.9h-8.28v6.9h8.28Z" transform="translate(392 271.943)" fill="#175e81"/>
    <path id="Path_59" data-name="Path 59" d="M1031.39,430.553h-7.59v6.895h8.28v-6.895Z" transform="translate(392 271.943)" fill="#175e81"/>
    <rect id="Rectangle_62" data-name="Rectangle 62" width="8.274" height="6.895" transform="translate(1429.6 690.084)" fill="#175e81"/>
    <rect id="Rectangle_63" data-name="Rectangle 63" width="8.274" height="6.895" transform="translate(1429.6 702.496)" fill="#175e81"/>
    <path id="Path_60" data-name="Path 60" d="M1032.08,463.651v-6.9h-8.28v6.9h8.28Z" transform="translate(392 271.943)" fill="#175e81"/>
    <path id="Path_61" data-name="Path 61" d="M1031.39,469.167h-7.59v6.9h8.28v-6.9Z" transform="translate(392 271.943)" fill="#175e81"/>
    <rect id="Rectangle_64" data-name="Rectangle 64" width="8.274" height="6.895" transform="translate(1429.6 728.698)" fill="#175e81"/>
    <rect id="Rectangle_65" data-name="Rectangle 65" width="8.274" height="6.895" transform="translate(1429.6 741.11)" fill="#175e81"/>
    <rect id="Rectangle_66" data-name="Rectangle 66" width="79.986" height="16.549" transform="translate(1301.342 619.751)" fill="#175e81"/>
    <rect id="Rectangle_67" data-name="Rectangle 67" width="79.986" height="16.549" transform="translate(1301.342 652.849)" fill="#175e81"/>
    <rect id="Rectangle_68" data-name="Rectangle 68" width="79.986" height="16.549" transform="translate(1301.342 685.947)" fill="#175e81"/>
    <rect id="Rectangle_69" data-name="Rectangle 69" width="79.986" height="16.549" transform="translate(1301.342 719.045)" fill="#175e81"/>
    <path id="Path_72" data-name="Path 72" d="M2.642-3.975V1.876" transform="translate(1329.5 739.443)" fill="none"/>
  </g>
  <g id="Group_51" data-name="Group 51" transform="translate(-392 -307.375)">
    <rect id="Rectangle_71" data-name="Rectangle 71" width="2" height="79" transform="translate(644 709)" fill="#175e81"/>
    <path id="Path_62" data-name="Path 62" d="M303.958,638.1c.127,27.624-19.308,50.108-19.308,50.108s-19.642-22.3-19.769-49.928,19.308-50.108,19.308-50.108S303.83,610.472,303.958,638.1Z" transform="translate(360.5 80.971)" fill="#17a4ea"/>
  </g>
  <g id="Group_53" data-name="Group 53" transform="translate(-392 -307.375)">
    <rect id="Rectangle_89" data-name="Rectangle 89" width="1" height="75" transform="translate(1286 714)" fill="#175e81"/>
    <path id="Path_181" data-name="Path 181" d="M491.129,621.7c.086,18.555-12.969,33.658-12.969,33.658s-13.193-14.982-13.279-33.537,12.969-33.658,12.969-33.658S491.043,603.15,491.129,621.7Z" transform="translate(808.5 121.813)" fill="#17a4ea"/>
  </g>
  <ellipse id="Ellipse_76" data-name="Ellipse 76" cx="38" cy="8.55" rx="38" ry="8.55" transform="translate(549.5 119.248)" fill="#17a4ea"/>
  <circle id="Ellipse_77" data-name="Ellipse 77" cx="2.92" cy="2.92" r="2.92" transform="translate(304.27 146.059)" fill="#17a4ea" opacity="0.4"/>
  <circle id="Ellipse_78" data-name="Ellipse 78" cx="7.92" cy="7.92" r="7.92" transform="translate(360.27 136.056)" fill="#17a4ea" opacity="0.4"/>
  <g id="Group_55" data-name="Group 55" transform="translate(-392 -308.375)">
    <path id="Path_8" data-name="Path 8" d="M68.137,460.2,64,453.308l38.614-33.1h99.294v9.653l-35.856,38.615-41.373,8.274Z" transform="translate(392 271.943)" fill="#175e81"/>
    <path id="Path_9" data-name="Path 9" d="M219,439.633V418.056H206v6.8l-4.092-4.65-33.1,33.1-5.517,5.516-6.9,27.582,12.412,30.339h63.437V454.687Z" transform="translate(392 271.943)" fill="#ccc"/>
    <rect id="Rectangle_2" data-name="Rectangle 2" width="104.81" height="63.438" transform="translate(456 725.251)" fill="#f2f2f2"/>
    <rect id="Rectangle_3" data-name="Rectangle 3" width="22.065" height="19.307" transform="translate(524.264 745.247)" fill="#175e81"/>
    <rect id="Rectangle_4" data-name="Rectangle 4" width="19.307" height="44.13" transform="translate(495.993 744.558)" fill="#ccc"/>
    <path id="Path_10" data-name="Path 10" d="M81.928,479.51v-6.9H73.654v6.9h8.274Z" transform="translate(392 271.943)" fill="#175e81"/>
    <path id="Path_11" data-name="Path 11" d="M81.238,485.026H73.654v6.9h8.274v-6.9Z" transform="translate(392 271.943)" fill="#175e81"/>
    <rect id="Rectangle_5" data-name="Rectangle 5" width="8.274" height="6.895" transform="translate(479.444 744.558)" fill="#175e81"/>
    <rect id="Rectangle_6" data-name="Rectangle 6" width="8.274" height="6.895" transform="translate(479.444 756.969)" fill="#175e81"/>
    <path id="Path_12" data-name="Path 12" d="M198.46,480.2v-6.9h-8.275v6.9h8.275Z" transform="translate(392 271.943)" fill="#175e81"/>
    <path id="Path_13" data-name="Path 13" d="M197.77,485.716h-7.585v6.895h8.275v-6.895Z" transform="translate(392 271.943)" fill="#175e81"/>
    <rect id="Rectangle_7" data-name="Rectangle 7" width="8.274" height="6.895" transform="translate(595.976 745.247)" fill="#175e81"/>
    <rect id="Rectangle_8" data-name="Rectangle 8" width="8.274" height="6.895" transform="translate(595.976 757.659)" fill="#175e81"/>
    <line id="Line_1" data-name="Line 1" x2="4" y2="15" transform="translate(571.5 730.443)" fill="none"/>
    <path id="Path_67" data-name="Path 67" d="M0,0" transform="translate(571.5 729.943) rotate(8)" fill="none" stroke="#707070" stroke-width="1"/>
    <path id="Path_68" data-name="Path 68" d="M0,9" transform="translate(554.5 760.443)" fill="none" stroke="#228fc5" stroke-width="1"/>
  </g>
  <g id="Group_56" data-name="Group 56" transform="translate(-392 -308.375)">
    <path id="Path_20" data-name="Path 20" d="M280.515,344.361l-6.9-5.517,38.614-34.477h97.914v30.34l-63.437,42.752Z" transform="translate(392 271.826)" fill="#175e81"/>
    <path id="Path_21" data-name="Path 21" d="M428,323.707V305.056H415v4.568l-4.852-5.257-31.719,34.477-12.411,8.275-19.245,140.6L375.8,516.745h67.45V340.223Z" transform="translate(392 271.943)" fill="#ccc"/>
    <rect id="Rectangle_16" data-name="Rectangle 16" width="104.81" height="177.901" transform="translate(665.62 610.787)" fill="#f2f2f2"/>
    <rect id="Rectangle_17" data-name="Rectangle 17" width="19.307" height="43.441" transform="translate(706.302 745.247)" fill="#ccc"/>
    <path id="Path_22" data-name="Path 22" d="M293.616,485.716v-6.895h-8.274v6.895h8.274Z" transform="translate(392 271.943)" fill="#175e81"/>
    <path id="Path_23" data-name="Path 23" d="M292.927,491.232h-7.585v6.9h8.274v-6.9Z" transform="translate(392 271.943)" fill="#175e81"/>
    <rect id="Rectangle_18" data-name="Rectangle 18" width="8.274" height="6.895" transform="translate(691.132 750.764)" fill="#175e81"/>
    <rect id="Rectangle_19" data-name="Rectangle 19" width="8.274" height="6.895" transform="translate(691.132 763.175)" fill="#175e81"/>
    <path id="Path_24" data-name="Path 24" d="M350.158,485.716v-6.895h-8.274v6.895h8.274Z" transform="translate(392 271.943)" fill="#175e81"/>
    <path id="Path_25" data-name="Path 25" d="M349.469,491.232h-7.585v6.9h8.274v-6.9Z" transform="translate(392 271.943)" fill="#175e81"/>
    <rect id="Rectangle_20" data-name="Rectangle 20" width="8.274" height="6.895" transform="translate(747.675 750.764)" fill="#175e81"/>
    <rect id="Rectangle_21" data-name="Rectangle 21" width="8.274" height="6.895" transform="translate(747.675 763.175)" fill="#175e81"/>
    <path id="Path_26" data-name="Path 26" d="M408.079,347.808v-6.9H399.8v6.9h8.274Z" transform="translate(392 271.943)" fill="#175e81"/>
    <path id="Path_27" data-name="Path 27" d="M407.39,353.325H399.8v6.895h8.274v-6.895Z" transform="translate(392 271.943)" fill="#175e81"/>
    <rect id="Rectangle_22" data-name="Rectangle 22" width="8.274" height="6.895" transform="translate(805.596 612.856)" fill="#175e81"/>
    <rect id="Rectangle_23" data-name="Rectangle 23" width="8.274" height="6.895" transform="translate(805.596 625.268)" fill="#175e81"/>
    <path id="Path_28" data-name="Path 28" d="M408.079,386.423v-6.9H399.8v6.9h8.274Z" transform="translate(392 271.943)" fill="#175e81"/>
    <path id="Path_29" data-name="Path 29" d="M407.39,391.939H399.8v6.9h8.274v-6.9Z" transform="translate(392 271.943)" fill="#175e81"/>
    <rect id="Rectangle_24" data-name="Rectangle 24" width="8.274" height="6.895" transform="translate(805.596 651.47)" fill="#175e81"/>
    <rect id="Rectangle_25" data-name="Rectangle 25" width="8.274" height="6.895" transform="translate(805.596 663.882)" fill="#175e81"/>
    <path id="Path_30" data-name="Path 30" d="M408.079,425.037v-6.9H399.8v6.9h8.274Z" transform="translate(392 271.943)" fill="#175e81"/>
    <path id="Path_31" data-name="Path 31" d="M407.39,430.553H399.8v6.895h8.274v-6.895Z" transform="translate(392 271.943)" fill="#175e81"/>
    <rect id="Rectangle_26" data-name="Rectangle 26" width="8.274" height="6.895" transform="translate(805.596 690.084)" fill="#175e81"/>
    <rect id="Rectangle_27" data-name="Rectangle 27" width="8.274" height="6.895" transform="translate(805.596 702.496)" fill="#175e81"/>
    <path id="Path_32" data-name="Path 32" d="M408.079,463.651v-6.9H399.8v6.9h8.274Z" transform="translate(392 271.943)" fill="#175e81"/>
    <path id="Path_33" data-name="Path 33" d="M407.39,469.167H399.8v6.9h8.274v-6.9Z" transform="translate(392 271.943)" fill="#175e81"/>
    <rect id="Rectangle_28" data-name="Rectangle 28" width="8.274" height="6.895" transform="translate(805.596 728.698)" fill="#175e81"/>
    <rect id="Rectangle_29" data-name="Rectangle 29" width="8.274" height="6.895" transform="translate(805.596 741.11)" fill="#175e81"/>
    <rect id="Rectangle_30" data-name="Rectangle 30" width="79.986" height="16.549" transform="translate(677.342 619.751)" fill="#175e81"/>
    <rect id="Rectangle_31" data-name="Rectangle 31" width="79.986" height="16.549" transform="translate(677.342 652.849)" fill="#175e81"/>
    <rect id="Rectangle_32" data-name="Rectangle 32" width="79.986" height="16.549" transform="translate(677.342 685.947)" fill="#175e81"/>
    <rect id="Rectangle_33" data-name="Rectangle 33" width="79.986" height="16.549" transform="translate(677.342 719.045)" fill="#175e81"/>
    <path id="Path_120" data-name="Path 120" d="M10,0" transform="translate(795.5 651.443)" fill="none" stroke="#175e81" stroke-width="1"/>
  </g>
  <circle id="Ellipse_79" data-name="Ellipse 79" cx="5.42" cy="5.42" r="5.42" transform="translate(319.27 82.011)" fill="#17a4ea" opacity="0.4"/>
  <circle id="Ellipse_81" data-name="Ellipse 81" cx="10.42" cy="10.42" r="10.42" transform="translate(474.27 74.009)" fill="#17a4ea" opacity="0.4"/>
  <circle id="Ellipse_82" data-name="Ellipse 82" cx="10.92" cy="10.92" r="10.92" transform="translate(727 74.003)" fill="#17a4ea" opacity="0.4"/>
  <circle id="Ellipse_83" data-name="Ellipse 83" cx="6.92" cy="6.92" r="6.92" transform="translate(647.27 182.09)" fill="#17a4ea" opacity="0.4"/>
  <circle id="Ellipse_84" data-name="Ellipse 84" cx="8.42" cy="8.42" r="8.42" transform="translate(616.27 342.313)" fill="#17a4ea" opacity="0.4"/>
  <circle id="Ellipse_86" data-name="Ellipse 86" cx="8.42" cy="8.42" r="8.42" transform="translate(122.27 48.988)" fill="#17a4ea" opacity="0.4"/>
  <circle id="Ellipse_87" data-name="Ellipse 87" cx="8.42" cy="8.42" r="8.42" transform="translate(118.27 279.167)" fill="#17a4ea" opacity="0.07"/>
  <circle id="Ellipse_88" data-name="Ellipse 88" cx="21.92" cy="21.92" r="21.92" transform="translate(776.27 88.031)" fill="#17a4ea" opacity="0.4"/>
  <circle id="Ellipse_90" data-name="Ellipse 90" cx="2.92" cy="2.92" r="2.92" transform="translate(222.27 82.009)" fill="#17a4ea" opacity="0.4"/>
  <g id="Group_57" data-name="Group 57" transform="translate(543.304)">
    <path id="Path_70" data-name="Path 70" d="M312,173.328c2.266-2.579,4.508-5.207,6.69-7.726,8-10.667,16.972-20.983,21.468-33.723C349.791,104.617,337.8,78.041,312,72.967a46.391,46.391,0,0,0-17.864,0c-18.683,3.676-30.122,18.621-31.352,36.953a53.189,53.189,0,0,0,1.495,16.271c.47,1.88,1.037,3.784,1.7,5.689,4.508,12.74,13.476,23.057,21.48,33.723,2.182,2.519,4.424,5.146,6.678,7.726,1.832,2.085,3.689,4.158,5.521,6.123,3.423,3.652,3.411,3.652,6.822,0C308.325,177.486,310.17,175.413,312,173.328Z" transform="translate(-262.675 -72.099)" fill="#17a4ea" fill-rule="evenodd"/>
    <path id="Path_71" data-name="Path 71" d="M298.107,134.9a25.777,25.777,0,1,0,25.771-25.768A25.777,25.777,0,0,0,298.107,134.9Z" transform="translate(-283.483 -93.845)" fill="#f8f2f0" fill-rule="evenodd"/>
    <path id="Path_72-2" data-name="Path 72" d="M350.6,88.962a25.776,25.776,0,0,1,10.342,41.3c.048,1.121.072,2.23.072,3.362a70.469,70.469,0,0,1-19.322,48.56c.844-.012,1.688-.916,3.387-2.736,1.844-1.965,3.689-4.038,5.521-6.123,2.266-2.579,4.508-5.207,6.69-7.726,8-10.667,16.972-20.983,21.468-33.723,9.631-27.263-2.362-53.839-28.158-58.913a46.391,46.391,0,0,0-17.864,0c-1.483.3-2.941.663-4.339,1.1q2.242,1.428,4.339,3.013a71.035,71.035,0,0,1,11.126,10.389,26.046,26.046,0,0,1,6.738,1.494Z" transform="translate(-301.269 -72.1)" fill="#228fc5" fill-rule="evenodd"/>
    <path id="Path_73" data-name="Path 73" d="M372.6,118.54a70.293,70.293,0,0,1,10.342,33.59,25.776,25.776,0,0,0-10.342-41.3,26.061,26.061,0,0,0-6.738-1.494A71.305,71.305,0,0,1,372.6,118.54Z" transform="translate(-323.275 -93.965)" fill="#e0d2ce" fill-rule="evenodd"/>
  </g>
  <path id="Path_214" data-name="Path 214" d="M0,0H5.289V59.669H4.605L3.235,56.4l-1.167,6.09L.829,59.669H0Z" transform="translate(373 481.625)" fill="#227ca8"/>
  <path id="Path_207" data-name="Path 207" d="M0,0H5.289V59.669H4.605L3.235,56.4l-1.167,6.09L.829,59.669H0Z" transform="translate(274 481.625)" fill="#227ca8"/>
  <path id="Path_185" data-name="Path 185" d="M0,0H12V64H0Z" transform="translate(274 481.625)" fill="none"/>
  <path id="Path_206" data-name="Path 206" d="M0,0H12V64H0Z" transform="translate(274 481.625)" fill="none"/>
  <path id="Path_215" data-name="Path 215" d="M0,0H5.289V59.669H4.605L3.235,56.4l-1.167,6.09L.829,59.669H0Z" transform="translate(378 481.625)" fill="#175e81"/>
  <path id="Path_216" data-name="Path 216" d="M0,0H5.289V59.669H4.605L3.235,56.4l-1.167,6.09L.829,59.669H0Z" transform="translate(279 481.625)" fill="#175e81"/>
  <path id="Path_217" data-name="Path 217" d="M0,0H5.289V44.453H4.605l-1.37-2.437L2.068,46.553l-1.239-2.1H0Z" transform="translate(432 482.625)" fill="#227ca8"/>
  <path id="Path_218" data-name="Path 218" d="M0,0H5.289V44.453H4.605l-1.37-2.437L2.068,46.553l-1.239-2.1H0Z" transform="translate(437 482.625)" fill="#175e81"/>
  <path id="Path_239" data-name="Path 239" d="M0,0H5.289V59.669H4.605L3.235,56.4l-1.167,6.09L.829,59.669H0Z" transform="translate(373 481.625)" fill="#227ca8"/>
  <path id="Path_240" data-name="Path 240" d="M0,0H5.289V59.669H4.605L3.235,56.4l-1.167,6.09L.829,59.669H0Z" transform="translate(378 481.625)" fill="#175e81"/>
  <path id="Path_241" data-name="Path 241" d="M0,0H5.289V59.669H4.605L3.235,56.4l-1.167,6.09L.829,59.669H0Z" transform="translate(320 482.625)" fill="#227ca8"/>
  <path id="Path_242" data-name="Path 242" d="M0,0H5.289V59.669H4.605L3.235,56.4l-1.167,6.09L.829,59.669H0Z" transform="translate(325 482.625)" fill="#175e81"/>
  <path id="Path_214-2" data-name="Path 214" d="M0,0H5.289V59.669H4.605L3.235,56.4l-1.167,6.09L.829,59.669H0Z" transform="matrix(0.998, 0.07, -0.07, 0.998, 765.192, 481.342)" fill="#227ca8"/>
  <path id="Path_207-2" data-name="Path 207" d="M0,0H5.289V59.669H4.605L3.235,56.4l-1.167,6.09L.829,59.669H0Z" transform="translate(667.713 480.195) rotate(3)" fill="#227ca8"/>
  <path id="Path_185-2" data-name="Path 185" d="M0,0H12V64H0Z" transform="translate(667.713 480.195) rotate(3)" fill="none"/>
  <path id="Path_206-2" data-name="Path 206" d="M0,0H12V64H0Z" transform="translate(667.713 480.195) rotate(3)" fill="none"/>
  <path id="Path_215-2" data-name="Path 215" d="M0,0H5.289V59.669H4.605L3.235,56.4l-1.167,6.09L.829,59.669H0Z" transform="matrix(0.998, 0.07, -0.07, 0.998, 770.18, 481.691)" fill="#175e81"/>
  <path id="Path_216-2" data-name="Path 216" d="M0,0H5.289V59.669H4.605L3.235,56.4l-1.167,6.09L.829,59.669H0Z" transform="translate(672.706 480.457) rotate(3)" fill="#175e81"/>
  <path id="Path_217-2" data-name="Path 217" d="M0,0H5.289V44.453H4.605l-1.37-2.437L2.068,46.553l-1.239-2.1H0Z" transform="matrix(0.998, 0.07, -0.07, 0.998, 825.636, 482.322)" fill="#227ca8"/>
  <path id="Path_218-2" data-name="Path 218" d="M0,0H5.289V44.453H4.605l-1.37-2.437L2.068,46.553l-1.239-2.1H0Z" transform="matrix(0.998, 0.07, -0.07, 0.998, 829.624, 481.671)" fill="#175e81"/>
  <path id="Path_239-2" data-name="Path 239" d="M0,0H5.289V59.669H4.605L3.235,56.4l-1.167,6.09L.829,59.669H0Z" transform="matrix(0.998, 0.07, -0.07, 0.998, 765.192, 481.342)" fill="#227ca8"/>
  <path id="Path_240-2" data-name="Path 240" d="M0,0H5.289V59.669H4.605L3.235,56.4l-1.167,6.09L.829,59.669H0Z" transform="matrix(0.998, 0.07, -0.07, 0.998, 770.18, 481.691)" fill="#175e81"/>
  <path id="Path_241-2" data-name="Path 241" d="M0,0H5.289V59.669H4.605L3.235,56.4l-1.167,6.09L.829,59.669H0Z" transform="translate(713.598 481.602) rotate(3)" fill="#227ca8"/>
  <path id="Path_242-2" data-name="Path 242" d="M0,0H5.289V59.669H4.605L3.235,56.4l-1.167,6.09L.829,59.669H0Z" transform="translate(718.591 481.863) rotate(3)" fill="#175e81"/>
  <path id="Path_258" data-name="Path 258" d="M0,0H5.289V59.669H4.605L3.235,56.4l-1.167,6.09L.829,59.669H0Z" transform="translate(998 481.625)" fill="#227ca8"/>
  <path id="Path_259" data-name="Path 259" d="M0,0H5.289V59.669H4.605L3.235,56.4l-1.167,6.09L.829,59.669H0Z" transform="translate(899 481.625)" fill="#227ca8"/>
  <path id="Path_260" data-name="Path 260" d="M0,0H12V64H0Z" transform="translate(899 481.625)" fill="none"/>
  <path id="Path_261" data-name="Path 261" d="M0,0H12V64H0Z" transform="translate(899 481.625)" fill="none"/>
  <path id="Path_262" data-name="Path 262" d="M0,0H5.289V59.669H4.605L3.235,56.4l-1.167,6.09L.829,59.669H0Z" transform="translate(1003 481.625)" fill="#175e81"/>
  <path id="Path_263" data-name="Path 263" d="M0,0H5.289V59.669H4.605L3.235,56.4l-1.167,6.09L.829,59.669H0Z" transform="translate(904 481.625)" fill="#175e81"/>
  <path id="Path_264" data-name="Path 264" d="M0,0H5.289V44.453H4.605l-1.37-2.437L2.068,46.553l-1.239-2.1H0Z" transform="translate(1057 482.625)" fill="#227ca8"/>
  <path id="Path_265" data-name="Path 265" d="M0,0H5.289V44.453H4.605l-1.37-2.437L2.068,46.553l-1.239-2.1H0Z" transform="translate(1062 482.625)" fill="#175e81"/>
  <path id="Path_266" data-name="Path 266" d="M0,0H5.289V59.669H4.605L3.235,56.4l-1.167,6.09L.829,59.669H0Z" transform="translate(998 481.625)" fill="#227ca8"/>
  <path id="Path_267" data-name="Path 267" d="M0,0H5.289V59.669H4.605L3.235,56.4l-1.167,6.09L.829,59.669H0Z" transform="translate(1003 481.625)" fill="#175e81"/>
  <path id="Path_268" data-name="Path 268" d="M0,0H5.289V59.669H4.605L3.235,56.4l-1.167,6.09L.829,59.669H0Z" transform="translate(945 482.625)" fill="#227ca8"/>
  <path id="Path_269" data-name="Path 269" d="M0,0H5.289V59.669H4.605L3.235,56.4l-1.167,6.09L.829,59.669H0Z" transform="translate(950 482.625)" fill="#175e81"/>
  <rect id="Rectangle_93" data-name="Rectangle 93" width="174" height="14" transform="translate(460 482.625)" fill="#175e81"/>
  <rect id="Rectangle_96" data-name="Rectangle 96" width="174" height="10" transform="translate(57 482.625)" fill="#175e81"/>
  <g id="Group_48" data-name="Group 48" transform="translate(-392 -296.375)">
    <path id="Path_14" data-name="Path 14" d="M467.137,460.2,463,453.308l38.614-33.1h99.294v9.653l-35.856,38.615-41.373,8.274Z" transform="translate(392 271.943)" fill="#175e81"/>
    <path id="Path_15" data-name="Path 15" d="M618,439.633V418.056H605v6.8l-4.092-4.65-33.1,33.1-5.517,5.516-6.9,27.582,12.412,30.339h63.437V454.687Z" transform="translate(392 271.943)" fill="#ccc"/>
    <rect id="Rectangle_9" data-name="Rectangle 9" width="104.81" height="63.438" transform="translate(855 725.251)" fill="#f2f2f2"/>
    <rect id="Rectangle_10" data-name="Rectangle 10" width="22.065" height="19.307" transform="translate(923.264 745.247)" fill="#175e81"/>
    <rect id="Rectangle_11" data-name="Rectangle 11" width="19.307" height="44.13" transform="translate(894.993 744.558)" fill="#ccc"/>
    <path id="Path_16" data-name="Path 16" d="M480.928,479.51v-6.9h-8.274v6.9h8.274Z" transform="translate(392 271.943)" fill="#175e81"/>
    <path id="Path_17" data-name="Path 17" d="M480.238,485.026h-7.584v6.9h8.274v-6.9Z" transform="translate(392 271.943)" fill="#175e81"/>
    <rect id="Rectangle_12" data-name="Rectangle 12" width="8.274" height="6.895" transform="translate(878.444 744.558)" fill="#175e81"/>
    <rect id="Rectangle_13" data-name="Rectangle 13" width="8.274" height="6.895" transform="translate(878.444 756.969)" fill="#175e81"/>
    <path id="Path_18" data-name="Path 18" d="M597.46,480.2v-6.9h-8.275v6.9h8.275Z" transform="translate(392 271.943)" fill="#175e81"/>
    <path id="Path_19" data-name="Path 19" d="M596.77,485.716h-7.585v6.895h8.275v-6.895Z" transform="translate(392 271.943)" fill="#175e81"/>
    <rect id="Rectangle_14" data-name="Rectangle 14" width="8.274" height="6.895" transform="translate(994.976 745.247)" fill="#175e81"/>
    <rect id="Rectangle_15" data-name="Rectangle 15" width="8.274" height="6.895" transform="translate(994.976 757.659)" fill="#175e81"/>
  </g>
  <path id="Path_274" data-name="Path 274" d="M0,0H3.734V8.291l.024.453,1.294,6.732L9.4,15.248l.2,6.3,5.759-.3" transform="translate(459.399 427.528) rotate(3)" fill="none" stroke="#17a4ea" stroke-width="3"/>
  <path id="Path_271" data-name="Path 271" d="M0,0H5.674V8.325H8.62v5.632h6.059v4.483h4.345" transform="translate(539.13 430.861) rotate(90)" fill="none" stroke="#17a4ea" stroke-width="3"/>
  <path id="Path_273" data-name="Path 273" d="M0,18.439H5.674V10.115H8.62V4.483h6.059V0h4.345" transform="translate(611.691 475.885) rotate(-90)" fill="none" stroke="#17a4ea" stroke-width="3"/>
  <g id="Group_52" data-name="Group 52" transform="translate(-392 -307.375)">
    <rect id="Rectangle_72" data-name="Rectangle 72" width="2" height="79" transform="translate(844 709)" fill="#175e81"/>
    <path id="Path_63" data-name="Path 63" d="M503.958,638.1c.127,27.624-19.308,50.108-19.308,50.108s-19.642-22.3-19.769-49.928,19.308-50.108,19.308-50.108S503.83,610.472,503.958,638.1Z" transform="translate(360.5 80.971)" fill="#17a4ea"/>
  </g>
  <path id="Path_275" data-name="Path 275" d="M-1.441,3.811,5.674,5.025v3.3H8.62v5.632h6.059v4.483h4.345" transform="translate(661.691 470.885) rotate(-90)" fill="none" stroke="#17a4ea" stroke-width="3"/>
  <g id="Group_46" data-name="Group 46" transform="translate(-394 -308.375)">
    <path id="Path_6" data-name="Path 6" d="M700.131,698.244c1.694,6.262,7.5,10.14,7.5,10.14s3.056-6.274,1.362-12.536-7.5-10.14-7.5-10.14S698.437,691.982,700.131,698.244Z" transform="translate(351.5 81.971)" fill="#175e81"/>
    <path id="Path_7" data-name="Path 7" d="M702.62,696.9c4.648,4.525,5.216,11.481,5.216,11.481s-6.969-.38-11.617-4.905S691,691.993,691,691.993,697.971,692.374,702.62,696.9Z" transform="translate(351.5 82.971)" fill="#17a4ea"/>
  </g>
  <path id="Path_276" data-name="Path 276" d="M-1.5,5.025H5.674v3.3H9.892v3.763h9.133v5.87h4.886v3.388H30.23v2.176l9.517.967" transform="translate(765.691 344.885) rotate(-90)" fill="none" stroke="#17a4ea" stroke-width="3"/>
  <path id="Path_277" data-name="Path 277" d="M14.257,18.494h2.387V13.661h4.281V7.792h4.886V4.4H32.13V.962h4.063" transform="translate(820.946 444.785) rotate(-90)" fill="none" stroke="#17a4ea" stroke-width="2"/>
  <path id="Path_278" data-name="Path 278" d="M0,16l.869-4.573H5.538V6.668H11V0" transform="translate(755.5 394.125)" fill="none" stroke="#17a4ea" stroke-width="3"/>
  <g id="Group_54" data-name="Group 54" transform="translate(-392 -307.375)">
    <rect id="Rectangle_73" data-name="Rectangle 73" width="2" height="79" transform="translate(1243 709)" fill="#175e81"/>
    <path id="Path_64" data-name="Path 64" d="M902.958,638.1c.127,27.624-19.308,50.108-19.308,50.108s-19.642-22.3-19.769-49.928,19.308-50.108,19.308-50.108S902.83,610.472,902.958,638.1Z" transform="translate(360.5 80.971)" fill="#17a4ea"/>
  </g>
</svg>
